<svg width="210" height="380" viewBox="0 0 210 380" fill="none" xmlns="http://www.w3.org/2000/svg">
<g clip-path="url(#clip0)">
<rect width="210" height="380" fill="#E6E6E6"/>
<path fill-rule="evenodd" clip-rule="evenodd" d="M60 174L210 60V80L60 194V174ZM60 214L210 100V120L60 234V214ZM60 134L210 20V40L60 154V134Z" fill="black" fill-opacity="0.02"/>
<path fill-rule="evenodd" clip-rule="evenodd" d="M-90 288L60 174V194L-90 308V288ZM-90 328L60 214V234L-90 348V328ZM-90 248L60 134V154L-90 268V248Z" fill="black" fill-opacity="0.02"/>
<path d="M53.3545 23.21C51.7305 23.21 50.4705 22.7853 49.5745 21.936C48.6879 21.0773 48.2445 19.8453 48.2445 18.24C48.2445 16.6253 48.6785 15.3933 49.5465 14.544C50.4239 13.6947 51.6745 13.27 53.2985 13.27C53.9799 13.27 54.5959 13.34 55.1465 13.48C55.7065 13.6107 56.1779 13.802 56.5605 14.054C56.6539 14.1193 56.7005 14.194 56.7005 14.278C56.7005 14.3527 56.6725 14.432 56.6165 14.516L56.1265 15.37C56.0612 15.4727 55.9959 15.524 55.9305 15.524C55.8745 15.524 55.7952 15.496 55.6925 15.44C55.0952 15.104 54.3905 14.936 53.5785 14.936C52.6172 14.936 51.8705 15.216 51.3385 15.776C50.8065 16.3267 50.5405 17.148 50.5405 18.24C50.5405 19.3413 50.8159 20.1673 51.3665 20.718C51.9265 21.2687 52.6872 21.544 53.6485 21.544C54.5259 21.544 55.2632 21.376 55.8605 21.04C55.9632 20.984 56.0425 20.956 56.0985 20.956C56.1639 20.956 56.2292 21.0073 56.2945 21.11L56.8405 22.048C56.8779 22.1133 56.8965 22.1693 56.8965 22.216C56.8965 22.272 56.8405 22.342 56.7285 22.426C56.0005 22.9487 54.8759 23.21 53.3545 23.21ZM58.6428 23C58.4188 23 58.2555 22.9533 58.1528 22.86C58.0595 22.7573 58.0128 22.6033 58.0128 22.398V14.096C58.0128 13.8907 58.0595 13.7367 58.1528 13.634C58.2555 13.5313 58.4188 13.48 58.6428 13.48H59.6928C59.9262 13.48 60.0895 13.5313 60.1828 13.634C60.2762 13.7273 60.3228 13.8813 60.3228 14.096V22.398C60.3228 22.6033 60.2762 22.7573 60.1828 22.86C60.0895 22.9533 59.9262 23 59.6928 23H58.6428ZM65.3853 23.21C64.1439 23.21 63.1779 22.8927 62.4873 22.258C61.8059 21.614 61.4653 20.7413 61.4653 19.64C61.4653 18.5387 61.8059 17.6707 62.4873 17.036C63.1779 16.392 64.1439 16.07 65.3853 16.07C66.6359 16.07 67.6019 16.392 68.2833 17.036C68.9739 17.6707 69.3193 18.5387 69.3193 19.64C69.3193 20.7413 68.9739 21.614 68.2833 22.258C67.6019 22.8927 66.6359 23.21 65.3853 23.21ZM65.3853 21.544C65.9173 21.544 66.3233 21.3853 66.6033 21.068C66.8833 20.7507 67.0233 20.2747 67.0233 19.64C67.0233 19.0147 66.8833 18.5433 66.6033 18.226C66.3233 17.9087 65.9173 17.75 65.3853 17.75C64.8626 17.75 64.4613 17.9087 64.1813 18.226C63.9013 18.5433 63.7613 19.0147 63.7613 19.64C63.7613 20.2653 63.9013 20.7413 64.1813 21.068C64.4613 21.3853 64.8626 21.544 65.3853 21.544ZM72.9319 23.21C72.1666 23.21 71.5506 22.9953 71.0839 22.566C70.6266 22.1367 70.3979 21.4973 70.3979 20.648V16.896C70.3979 16.6907 70.4446 16.5367 70.5379 16.434C70.6406 16.3313 70.8039 16.28 71.0279 16.28H72.0779C72.3112 16.28 72.4746 16.3313 72.5679 16.434C72.6612 16.5273 72.7079 16.6813 72.7079 16.896V20.564C72.7079 20.928 72.7966 21.194 72.9739 21.362C73.1606 21.53 73.4312 21.614 73.7859 21.614C74.1686 21.614 74.4766 21.5113 74.7099 21.306C74.9526 21.1007 75.0739 20.8207 75.0739 20.466V16.896C75.0739 16.6907 75.1206 16.5367 75.2139 16.434C75.3166 16.3313 75.4846 16.28 75.7179 16.28H76.7539C76.9872 16.28 77.1506 16.3313 77.2439 16.434C77.3466 16.5367 77.3979 16.6907 77.3979 16.896V22.594C77.3979 22.7527 77.3699 22.86 77.3139 22.916C77.2579 22.972 77.1459 23 76.9779 23H75.8579C75.6432 23 75.5312 22.9207 75.5219 22.762L75.4659 22.244C74.8499 22.888 74.0052 23.21 72.9319 23.21ZM82.6294 23.21C79.9041 23.21 78.5414 22.0107 78.5414 19.612C78.5414 18.912 78.6721 18.296 78.9334 17.764C79.2041 17.2227 79.5961 16.8073 80.1094 16.518C80.6228 16.2193 81.2341 16.07 81.9434 16.07C82.3448 16.07 82.7041 16.1167 83.0214 16.21C83.3481 16.294 83.6094 16.42 83.8054 16.588V14.096C83.8054 13.8813 83.8521 13.7273 83.9454 13.634C84.0388 13.5313 84.2021 13.48 84.4354 13.48H85.4434C85.6674 13.48 85.8261 13.5313 85.9194 13.634C86.0221 13.7367 86.0734 13.8907 86.0734 14.096V22.258C85.6908 22.538 85.1914 22.7667 84.5754 22.944C83.9594 23.1213 83.3108 23.21 82.6294 23.21ZM82.6854 21.614C83.1428 21.614 83.5161 21.5347 83.8054 21.376V18.814C83.8054 18.4313 83.6841 18.1467 83.4414 17.96C83.1988 17.764 82.8721 17.666 82.4614 17.666C81.9108 17.666 81.5001 17.8433 81.2294 18.198C80.9681 18.5433 80.8374 19.024 80.8374 19.64C80.8374 20.3493 80.9914 20.858 81.2994 21.166C81.6074 21.4647 82.0694 21.614 82.6854 21.614ZM97.378 23.21C95.754 23.21 94.494 22.7853 93.598 21.936C92.7113 21.0773 92.268 19.8453 92.268 18.24C92.268 16.6347 92.716 15.4073 93.612 14.558C94.508 13.6993 95.7633 13.27 97.378 13.27C98.0593 13.27 98.6847 13.34 99.254 13.48C99.8233 13.6107 100.295 13.802 100.668 14.054C100.771 14.1193 100.822 14.194 100.822 14.278C100.822 14.3153 100.799 14.3807 100.752 14.474L100.22 15.37C100.155 15.4727 100.089 15.524 100.024 15.524C99.9773 15.524 99.9027 15.496 99.8 15.44C99.184 15.104 98.4747 14.936 97.672 14.936C96.7013 14.936 95.9407 15.2113 95.39 15.762C94.8393 16.3127 94.564 17.1387 94.564 18.24C94.564 19.3507 94.8207 20.1767 95.334 20.718C95.8473 21.2593 96.5707 21.53 97.504 21.53C97.8027 21.53 98.0967 21.5067 98.386 21.46C98.6753 21.4133 98.9087 21.348 99.086 21.264V19.108H97.56C97.336 19.108 97.182 19.066 97.098 18.982C97.014 18.8887 96.972 18.7347 96.972 18.52V18.016C96.972 17.8107 97.014 17.666 97.098 17.582C97.182 17.4887 97.336 17.442 97.56 17.442H100.528C100.789 17.442 100.971 17.5027 101.074 17.624C101.186 17.7453 101.242 17.932 101.242 18.184V21.74C101.242 21.8987 101.223 22.02 101.186 22.104C101.149 22.188 101.074 22.2673 100.962 22.342C100.057 22.9207 98.862 23.21 97.378 23.21ZM106.102 23.21C105.346 23.21 104.664 23.084 104.058 22.832C103.46 22.5707 102.984 22.1833 102.63 21.67C102.284 21.1473 102.112 20.5033 102.112 19.738C102.112 18.5433 102.438 17.6333 103.092 17.008C103.754 16.3827 104.697 16.07 105.92 16.07C107.124 16.07 108.034 16.3733 108.65 16.98C109.275 17.5867 109.588 18.45 109.588 19.57C109.588 19.962 109.41 20.158 109.056 20.158H104.296C104.296 20.662 104.482 21.054 104.856 21.334C105.238 21.6047 105.761 21.74 106.424 21.74C106.816 21.74 107.156 21.7027 107.446 21.628C107.735 21.544 108.015 21.4273 108.286 21.278C108.379 21.2313 108.444 21.208 108.482 21.208C108.547 21.208 108.608 21.2593 108.664 21.362L109.07 22.118C109.107 22.1833 109.126 22.2393 109.126 22.286C109.126 22.3607 109.074 22.4353 108.972 22.51C108.598 22.7527 108.178 22.93 107.712 23.042C107.245 23.154 106.708 23.21 106.102 23.21ZM107.516 18.954C107.516 18.4873 107.385 18.1233 107.124 17.862C106.862 17.6007 106.466 17.47 105.934 17.47C105.402 17.47 104.996 17.6053 104.716 17.876C104.436 18.1373 104.296 18.4967 104.296 18.954H107.516ZM111.376 23C111.142 23 110.974 22.9533 110.872 22.86C110.778 22.7573 110.732 22.6033 110.732 22.398V16.686C110.732 16.5273 110.76 16.42 110.816 16.364C110.872 16.308 110.984 16.28 111.152 16.28H112.272C112.384 16.28 112.468 16.2987 112.524 16.336C112.58 16.3733 112.612 16.4387 112.622 16.532L112.664 17.022C112.953 16.7233 113.317 16.49 113.756 16.322C114.194 16.154 114.694 16.07 115.254 16.07C116.019 16.07 116.63 16.28 117.088 16.7C117.554 17.1107 117.788 17.7267 117.788 18.548V22.398C117.788 22.6033 117.736 22.7573 117.634 22.86C117.54 22.9533 117.382 23 117.158 23H116.108C115.874 23 115.706 22.9533 115.604 22.86C115.51 22.7573 115.464 22.6033 115.464 22.398V18.688C115.464 18.324 115.384 18.0627 115.226 17.904C115.067 17.7453 114.806 17.666 114.442 17.666C114.05 17.666 113.718 17.7733 113.448 17.988C113.177 18.1933 113.042 18.464 113.042 18.8V22.398C113.042 22.6033 112.995 22.7573 112.902 22.86C112.808 22.9533 112.645 23 112.412 23H111.376ZM122.85 23.21C122.094 23.21 121.412 23.084 120.806 22.832C120.208 22.5707 119.732 22.1833 119.378 21.67C119.032 21.1473 118.86 20.5033 118.86 19.738C118.86 18.5433 119.186 17.6333 119.84 17.008C120.502 16.3827 121.445 16.07 122.668 16.07C123.872 16.07 124.782 16.3733 125.398 16.98C126.023 17.5867 126.336 18.45 126.336 19.57C126.336 19.962 126.158 20.158 125.804 20.158H121.044C121.044 20.662 121.23 21.054 121.604 21.334C121.986 21.6047 122.509 21.74 123.172 21.74C123.564 21.74 123.904 21.7027 124.194 21.628C124.483 21.544 124.763 21.4273 125.034 21.278C125.127 21.2313 125.192 21.208 125.23 21.208C125.295 21.208 125.356 21.2593 125.412 21.362L125.818 22.118C125.855 22.1833 125.874 22.2393 125.874 22.286C125.874 22.3607 125.822 22.4353 125.72 22.51C125.346 22.7527 124.926 22.93 124.46 23.042C123.993 23.154 123.456 23.21 122.85 23.21ZM124.264 18.954C124.264 18.4873 124.133 18.1233 123.872 17.862C123.61 17.6007 123.214 17.47 122.682 17.47C122.15 17.47 121.744 17.6053 121.464 17.876C121.184 18.1373 121.044 18.4967 121.044 18.954H124.264ZM128.124 23C127.89 23 127.722 22.9533 127.62 22.86C127.526 22.7573 127.48 22.6033 127.48 22.398V16.686C127.48 16.5273 127.508 16.42 127.564 16.364C127.62 16.308 127.732 16.28 127.9 16.28H129.02C129.132 16.28 129.211 16.2987 129.258 16.336C129.314 16.3733 129.346 16.4387 129.356 16.532L129.412 16.98C129.972 16.3733 130.672 16.07 131.512 16.07C131.782 16.07 132.002 16.0933 132.17 16.14C132.347 16.1773 132.501 16.2427 132.632 16.336C132.716 16.4013 132.758 16.4667 132.758 16.532C132.758 16.56 132.748 16.602 132.73 16.658L132.38 17.708C132.342 17.82 132.282 17.876 132.198 17.876C132.16 17.876 132.114 17.862 132.058 17.834C131.815 17.7127 131.535 17.652 131.218 17.652C130.807 17.652 130.466 17.7687 130.196 18.002C129.925 18.2353 129.79 18.548 129.79 18.94V22.398C129.79 22.6033 129.743 22.7573 129.65 22.86C129.556 22.9533 129.393 23 129.16 23H128.124ZM136.306 23.21C135.41 23.21 134.691 22.93 134.15 22.37C133.618 21.81 133.352 21.0213 133.352 20.004C133.352 19.22 133.534 18.534 133.898 17.946C134.262 17.3487 134.771 16.8867 135.424 16.56C136.077 16.2333 136.833 16.07 137.692 16.07C138.355 16.07 138.938 16.1447 139.442 16.294C139.955 16.4433 140.422 16.658 140.842 16.938V22.594C140.842 22.7527 140.809 22.86 140.744 22.916C140.688 22.972 140.571 23 140.394 23H139.288C139.185 23 139.106 22.9813 139.05 22.944C139.003 22.9067 138.966 22.846 138.938 22.762L138.784 22.272C138.504 22.5987 138.163 22.8367 137.762 22.986C137.361 23.1353 136.875 23.21 136.306 23.21ZM137.16 21.614C137.571 21.614 137.925 21.4973 138.224 21.264C138.532 21.0307 138.686 20.7133 138.686 20.312V17.862C138.406 17.722 138.07 17.652 137.678 17.652C137.062 17.652 136.567 17.8573 136.194 18.268C135.83 18.6693 135.648 19.234 135.648 19.962C135.648 20.522 135.774 20.9373 136.026 21.208C136.278 21.4787 136.656 21.614 137.16 21.614ZM145.207 23.21C144.358 23.21 143.714 22.9767 143.275 22.51C142.836 22.0433 142.617 21.3993 142.617 20.578V17.904H141.931C141.707 17.904 141.558 17.862 141.483 17.778C141.408 17.694 141.371 17.5447 141.371 17.33V16.868C141.371 16.6533 141.408 16.504 141.483 16.42C141.558 16.3267 141.707 16.28 141.931 16.28H142.617V15.72C142.617 15.5147 142.659 15.314 142.743 15.118C142.836 14.9127 142.967 14.6607 143.135 14.362C143.21 14.2313 143.28 14.1473 143.345 14.11C143.41 14.0633 143.527 14.04 143.695 14.04H144.339C144.554 14.04 144.703 14.0867 144.787 14.18C144.88 14.2733 144.927 14.4227 144.927 14.628V16.28H146.313C146.537 16.28 146.686 16.3267 146.761 16.42C146.836 16.504 146.873 16.6533 146.873 16.868V17.33C146.873 17.5447 146.836 17.694 146.761 17.778C146.686 17.862 146.537 17.904 146.313 17.904H144.927V20.522C144.927 20.886 144.992 21.1473 145.123 21.306C145.254 21.4647 145.473 21.544 145.781 21.544C145.968 21.544 146.122 21.5207 146.243 21.474C146.374 21.4273 146.518 21.3527 146.677 21.25C146.752 21.2033 146.808 21.18 146.845 21.18C146.929 21.18 146.999 21.2313 147.055 21.334L147.573 22.216C147.62 22.2907 147.643 22.3513 147.643 22.398C147.643 22.4633 147.587 22.5333 147.475 22.608C146.887 23.0093 146.131 23.21 145.207 23.21ZM151.668 23.21C150.427 23.21 149.461 22.8927 148.77 22.258C148.089 21.614 147.748 20.7413 147.748 19.64C147.748 18.5387 148.089 17.6707 148.77 17.036C149.461 16.392 150.427 16.07 151.668 16.07C152.919 16.07 153.885 16.392 154.566 17.036C155.257 17.6707 155.602 18.5387 155.602 19.64C155.602 20.7413 155.257 21.614 154.566 22.258C153.885 22.8927 152.919 23.21 151.668 23.21ZM151.668 21.544C152.2 21.544 152.606 21.3853 152.886 21.068C153.166 20.7507 153.306 20.2747 153.306 19.64C153.306 19.0147 153.166 18.5433 152.886 18.226C152.606 17.9087 152.2 17.75 151.668 17.75C151.146 17.75 150.744 17.9087 150.464 18.226C150.184 18.5433 150.044 19.0147 150.044 19.64C150.044 20.2653 150.184 20.7413 150.464 21.068C150.744 21.3853 151.146 21.544 151.668 21.544ZM157.395 23C157.162 23 156.994 22.9533 156.891 22.86C156.798 22.7573 156.751 22.6033 156.751 22.398V16.686C156.751 16.5273 156.779 16.42 156.835 16.364C156.891 16.308 157.003 16.28 157.171 16.28H158.291C158.403 16.28 158.482 16.2987 158.529 16.336C158.585 16.3733 158.618 16.4387 158.627 16.532L158.683 16.98C159.243 16.3733 159.943 16.07 160.783 16.07C161.054 16.07 161.273 16.0933 161.441 16.14C161.618 16.1773 161.772 16.2427 161.903 16.336C161.987 16.4013 162.029 16.4667 162.029 16.532C162.029 16.56 162.02 16.602 162.001 16.658L161.651 17.708C161.614 17.82 161.553 17.876 161.469 17.876C161.432 17.876 161.385 17.862 161.329 17.834C161.086 17.7127 160.806 17.652 160.489 17.652C160.078 17.652 159.738 17.7687 159.467 18.002C159.196 18.2353 159.061 18.548 159.061 18.94V22.398C159.061 22.6033 159.014 22.7573 158.921 22.86C158.828 22.9533 158.664 23 158.431 23H157.395Z" fill="black"/>
<path d="M18.6679 297.12C17.7399 297.12 17.0199 296.877 16.5079 296.392C16.0012 295.901 15.7479 295.197 15.7479 294.28C15.7479 293.357 15.9959 292.653 16.4919 292.168C16.9932 291.683 17.7079 291.44 18.6359 291.44C19.0252 291.44 19.3772 291.48 19.6919 291.56C20.0119 291.635 20.2812 291.744 20.4999 291.888C20.5532 291.925 20.5799 291.968 20.5799 292.016C20.5799 292.059 20.5639 292.104 20.5319 292.152L20.2519 292.64C20.2146 292.699 20.1772 292.728 20.1399 292.728C20.1079 292.728 20.0626 292.712 20.0039 292.68C19.6626 292.488 19.2599 292.392 18.7959 292.392C18.2466 292.392 17.8199 292.552 17.5159 292.872C17.2119 293.187 17.0599 293.656 17.0599 294.28C17.0599 294.909 17.2172 295.381 17.5319 295.696C17.8519 296.011 18.2866 296.168 18.8359 296.168C19.3372 296.168 19.7586 296.072 20.0999 295.88C20.1586 295.848 20.2039 295.832 20.2359 295.832C20.2732 295.832 20.3106 295.861 20.3479 295.92L20.6599 296.456C20.6812 296.493 20.6919 296.525 20.6919 296.552C20.6919 296.584 20.6599 296.624 20.5959 296.672C20.1799 296.971 19.5372 297.12 18.6679 297.12ZM21.6898 297C21.5618 297 21.4684 296.973 21.4098 296.92C21.3564 296.861 21.3298 296.773 21.3298 296.656V291.912C21.3298 291.795 21.3564 291.707 21.4098 291.648C21.4684 291.589 21.5618 291.56 21.6898 291.56H22.2898C22.4231 291.56 22.5164 291.589 22.5698 291.648C22.6231 291.701 22.6498 291.789 22.6498 291.912V293.784H24.8738V291.912C24.8738 291.795 24.9004 291.707 24.9538 291.648C25.0124 291.589 25.1084 291.56 25.2418 291.56H25.8338C25.9671 291.56 26.0604 291.589 26.1138 291.648C26.1724 291.707 26.2018 291.795 26.2018 291.912V296.656C26.2018 296.773 26.1724 296.861 26.1138 296.92C26.0604 296.973 25.9671 297 25.8338 297H25.2418C25.1084 297 25.0124 296.973 24.9538 296.92C24.9004 296.861 24.8738 296.773 24.8738 296.656V294.752H22.6498V296.656C22.6498 296.773 22.6231 296.861 22.5698 296.92C22.5164 296.973 22.4231 297 22.2898 297H21.6898ZM27.0093 297C26.9133 297 26.8653 296.955 26.8653 296.864C26.8653 296.827 26.8733 296.784 26.8893 296.736L28.9613 291.8C28.9986 291.709 29.0386 291.648 29.0813 291.616C29.1293 291.579 29.1959 291.56 29.2813 291.56H29.8653C29.9506 291.56 30.0146 291.579 30.0573 291.616C30.0999 291.648 30.1399 291.709 30.1773 291.8L32.2493 296.736C32.2653 296.784 32.2733 296.827 32.2733 296.864C32.2733 296.955 32.2253 297 32.1293 297H31.1613C31.0866 297 31.0306 296.989 30.9933 296.968C30.9613 296.941 30.9319 296.896 30.9053 296.832L30.5373 295.888H28.5933L28.2333 296.832C28.2066 296.896 28.1746 296.941 28.1373 296.968C28.1053 296.989 28.0519 297 27.9773 297H27.0093ZM30.2333 294.968L29.5693 293.24L28.8973 294.968H30.2333ZM35.0477 297.12C34.141 297.12 33.4477 296.872 32.9677 296.376C32.493 295.88 32.2557 295.181 32.2557 294.28C32.2557 293.379 32.493 292.68 32.9677 292.184C33.4477 291.688 34.141 291.44 35.0477 291.44C35.949 291.44 36.637 291.688 37.1117 292.184C37.5917 292.68 37.8317 293.379 37.8317 294.28C37.8317 295.181 37.5917 295.88 37.1117 296.376C36.637 296.872 35.949 297.12 35.0477 297.12ZM35.0477 296.168C35.533 296.168 35.8984 296.011 36.1437 295.696C36.3944 295.376 36.5197 294.904 36.5197 294.28C36.5197 293.656 36.3944 293.187 36.1437 292.872C35.8984 292.552 35.533 292.392 35.0477 292.392C34.557 292.392 34.1864 292.552 33.9357 292.872C33.6904 293.187 33.5677 293.656 33.5677 294.28C33.5677 294.904 33.6904 295.376 33.9357 295.696C34.1864 296.011 34.557 296.168 35.0477 296.168ZM40.2146 297.12C39.7986 297.12 39.3986 297.077 39.0146 296.992C38.636 296.901 38.3293 296.776 38.0946 296.616C38.0146 296.557 37.9746 296.504 37.9746 296.456C37.9746 296.424 37.988 296.387 38.0146 296.344L38.3426 295.824C38.3746 295.771 38.4093 295.744 38.4466 295.744C38.4786 295.744 38.5186 295.76 38.5666 295.792C38.764 295.904 38.9906 295.995 39.2466 296.064C39.5026 296.133 39.7613 296.168 40.0226 296.168C40.332 296.168 40.5613 296.12 40.7106 296.024C40.86 295.923 40.9346 295.765 40.9346 295.552C40.9346 295.408 40.8973 295.291 40.8226 295.2C40.7533 295.109 40.6466 295.029 40.5026 294.96C40.364 294.891 40.148 294.8 39.8546 294.688C39.5133 294.56 39.2226 294.429 38.9826 294.296C38.748 294.163 38.5533 293.992 38.3986 293.784C38.2493 293.571 38.1746 293.312 38.1746 293.008C38.1746 292.501 38.3586 292.115 38.7266 291.848C39.0946 291.576 39.58 291.44 40.1826 291.44C40.9773 291.44 41.5853 291.589 42.0066 291.888C42.0866 291.952 42.1266 292.005 42.1266 292.048C42.1266 292.08 42.1133 292.117 42.0866 292.16L41.7586 292.68C41.7266 292.733 41.692 292.76 41.6546 292.76C41.6226 292.76 41.5826 292.744 41.5346 292.712C41.2093 292.499 40.8146 292.392 40.3506 292.392C39.7746 292.392 39.4866 292.6 39.4866 293.016C39.4866 293.155 39.5186 293.269 39.5826 293.36C39.652 293.445 39.7453 293.52 39.8626 293.584C39.98 293.643 40.164 293.72 40.4146 293.816L40.6386 293.904C41.028 294.059 41.3346 294.205 41.5586 294.344C41.7826 294.477 41.9533 294.643 42.0706 294.84C42.1933 295.037 42.2546 295.291 42.2546 295.6C42.2546 296.064 42.0786 296.435 41.7266 296.712C41.38 296.984 40.876 297.12 40.2146 297.12Z" fill="black"/>
<path d="M14.9905 239C14.8625 239 14.7719 238.976 14.7185 238.928C14.6705 238.875 14.6465 238.789 14.6465 238.672V238.368C14.6465 238.251 14.6705 238.165 14.7185 238.112C14.7719 238.059 14.8625 238.032 14.9905 238.032H15.6785V234.968L15.1105 235.32C15.0839 235.341 15.0492 235.352 15.0065 235.352C14.9532 235.352 14.9132 235.328 14.8865 235.28L14.5105 234.704C14.4892 234.667 14.4785 234.632 14.4785 234.6C14.4785 234.547 14.5079 234.504 14.5665 234.472L15.9505 233.64C15.9985 233.608 16.0439 233.587 16.0865 233.576C16.1292 233.565 16.1905 233.56 16.2705 233.56H16.6465C16.7745 233.56 16.8652 233.589 16.9185 233.648C16.9772 233.707 17.0065 233.795 17.0065 233.912V238.032H17.7025C17.8305 238.032 17.9185 238.059 17.9665 238.112C18.0145 238.16 18.0385 238.245 18.0385 238.368V238.672C18.0385 238.789 18.0145 238.875 17.9665 238.928C17.9185 238.976 17.8305 239 17.7025 239H14.9905ZM20.7448 239C20.6595 239 20.5955 238.984 20.5528 238.952C20.5101 238.92 20.4701 238.859 20.4328 238.768L18.4088 233.824C18.3928 233.776 18.3848 233.733 18.3848 233.696C18.3848 233.605 18.4328 233.56 18.5288 233.56H19.4888C19.5635 233.56 19.6195 233.576 19.6568 233.608C19.6995 233.64 19.7315 233.685 19.7528 233.744L21.0328 237.176L22.3128 233.744C22.3555 233.621 22.4461 233.56 22.5848 233.56H23.5448C23.6408 233.56 23.6888 233.605 23.6888 233.696C23.6888 233.733 23.6808 233.776 23.6648 233.824L21.6488 238.768C21.6115 238.859 21.5688 238.92 21.5208 238.952C21.4781 238.984 21.4141 239 21.3288 239H20.7448ZM24.3253 239C24.2346 239 24.1893 238.963 24.1893 238.888C24.1893 238.84 24.2 238.795 24.2213 238.752L26.2853 233.72C26.328 233.613 26.4053 233.56 26.5173 233.56H27.5093C27.5946 233.56 27.6373 233.6 27.6373 233.68C27.6373 233.717 27.6293 233.76 27.6133 233.808L25.5493 238.84C25.5066 238.947 25.4266 239 25.3093 239H24.3253ZM30.9266 239.12C30.0199 239.12 29.3266 238.872 28.8466 238.376C28.3719 237.88 28.1346 237.181 28.1346 236.28C28.1346 235.379 28.3719 234.68 28.8466 234.184C29.3266 233.688 30.0199 233.44 30.9266 233.44C31.8279 233.44 32.5159 233.688 32.9906 234.184C33.4706 234.68 33.7106 235.379 33.7106 236.28C33.7106 237.181 33.4706 237.88 32.9906 238.376C32.5159 238.872 31.8279 239.12 30.9266 239.12ZM30.9266 238.168C31.4119 238.168 31.7773 238.011 32.0226 237.696C32.2733 237.376 32.3986 236.904 32.3986 236.28C32.3986 235.656 32.2733 235.187 32.0226 234.872C31.7773 234.552 31.4119 234.392 30.9266 234.392C30.4359 234.392 30.0653 234.552 29.8146 234.872C29.5693 235.187 29.4466 235.656 29.4466 236.28C29.4466 236.904 29.5693 237.376 29.8146 237.696C30.0653 238.011 30.4359 238.168 30.9266 238.168ZM36.9218 239.12C35.9938 239.12 35.2738 238.877 34.7618 238.392C34.2551 237.901 34.0018 237.197 34.0018 236.28C34.0018 235.357 34.2498 234.653 34.7458 234.168C35.2471 233.683 35.9618 233.44 36.8898 233.44C37.2791 233.44 37.6311 233.48 37.9458 233.56C38.2658 233.635 38.5351 233.744 38.7538 233.888C38.8071 233.925 38.8338 233.968 38.8338 234.016C38.8338 234.059 38.8178 234.104 38.7858 234.152L38.5058 234.64C38.4685 234.699 38.4311 234.728 38.3938 234.728C38.3618 234.728 38.3165 234.712 38.2578 234.68C37.9165 234.488 37.5138 234.392 37.0498 234.392C36.5005 234.392 36.0738 234.552 35.7698 234.872C35.4658 235.187 35.3138 235.656 35.3138 236.28C35.3138 236.909 35.4711 237.381 35.7858 237.696C36.1058 238.011 36.5405 238.168 37.0898 238.168C37.5911 238.168 38.0125 238.072 38.3538 237.88C38.4125 237.848 38.4578 237.832 38.4898 237.832C38.5271 237.832 38.5645 237.861 38.6018 237.92L38.9138 238.456C38.9351 238.493 38.9458 238.525 38.9458 238.552C38.9458 238.584 38.9138 238.624 38.8498 238.672C38.4338 238.971 37.7911 239.12 36.9218 239.12ZM41.0765 239C40.9432 239 40.8472 238.973 40.7885 238.92C40.7352 238.861 40.7085 238.773 40.7085 238.656V234.536H39.3965C39.2685 234.536 39.1805 234.512 39.1325 234.464C39.0845 234.411 39.0605 234.323 39.0605 234.2V233.904C39.0605 233.781 39.0845 233.693 39.1325 233.64C39.1805 233.587 39.2685 233.56 39.3965 233.56H43.3485C43.4765 233.56 43.5645 233.587 43.6125 233.64C43.6659 233.693 43.6925 233.781 43.6925 233.904V234.2C43.6925 234.317 43.6659 234.403 43.6125 234.456C43.5645 234.509 43.4765 234.536 43.3485 234.536H42.0365V238.656C42.0365 238.773 42.0072 238.861 41.9485 238.92C41.8952 238.973 41.8019 239 41.6685 239H41.0765Z" fill="black"/>
<path d="M38.9679 171.12C38.0399 171.12 37.3199 170.877 36.8079 170.392C36.3013 169.901 36.0479 169.197 36.0479 168.28C36.0479 167.357 36.2959 166.653 36.7919 166.168C37.2933 165.683 38.0079 165.44 38.9359 165.44C39.3253 165.44 39.6773 165.48 39.9919 165.56C40.3119 165.635 40.5813 165.744 40.7999 165.888C40.8533 165.925 40.8799 165.968 40.8799 166.016C40.8799 166.059 40.8639 166.104 40.8319 166.152L40.5519 166.64C40.5146 166.699 40.4773 166.728 40.4399 166.728C40.4079 166.728 40.3626 166.712 40.3039 166.68C39.9626 166.488 39.5599 166.392 39.0959 166.392C38.5466 166.392 38.1199 166.552 37.8159 166.872C37.5119 167.187 37.3599 167.656 37.3599 168.28C37.3599 168.909 37.5173 169.381 37.8319 169.696C38.1519 170.011 38.5866 170.168 39.1359 170.168C39.6373 170.168 40.0586 170.072 40.3999 169.88C40.4586 169.848 40.5039 169.832 40.5359 169.832C40.5733 169.832 40.6106 169.861 40.6479 169.92L40.9599 170.456C40.9813 170.493 40.9919 170.525 40.9919 170.552C40.9919 170.584 40.9599 170.624 40.8959 170.672C40.4799 170.971 39.8373 171.12 38.9679 171.12ZM41.9898 171C41.8618 171 41.7685 170.973 41.7098 170.92C41.6565 170.861 41.6298 170.773 41.6298 170.656V165.912C41.6298 165.795 41.6565 165.707 41.7098 165.648C41.7685 165.589 41.8618 165.56 41.9898 165.56H42.5898C42.7231 165.56 42.8165 165.589 42.8698 165.648C42.9231 165.701 42.9498 165.789 42.9498 165.912V167.784H45.1738V165.912C45.1738 165.795 45.2005 165.707 45.2538 165.648C45.3125 165.589 45.4085 165.56 45.5418 165.56H46.1338C46.2671 165.56 46.3605 165.589 46.4138 165.648C46.4725 165.707 46.5018 165.795 46.5018 165.912V170.656C46.5018 170.773 46.4725 170.861 46.4138 170.92C46.3605 170.973 46.2671 171 46.1338 171H45.5418C45.4085 171 45.3125 170.973 45.2538 170.92C45.2005 170.861 45.1738 170.773 45.1738 170.656V168.752H42.9498V170.656C42.9498 170.773 42.9231 170.861 42.8698 170.92C42.8165 170.973 42.7231 171 42.5898 171H41.9898ZM47.3093 171C47.2133 171 47.1653 170.955 47.1653 170.864C47.1653 170.827 47.1733 170.784 47.1893 170.736L49.2613 165.8C49.2986 165.709 49.3386 165.648 49.3813 165.616C49.4293 165.579 49.496 165.56 49.5813 165.56H50.1653C50.2506 165.56 50.3146 165.579 50.3573 165.616C50.4 165.648 50.44 165.709 50.4773 165.8L52.5493 170.736C52.5653 170.784 52.5733 170.827 52.5733 170.864C52.5733 170.955 52.5253 171 52.4293 171H51.4613C51.3866 171 51.3306 170.989 51.2933 170.968C51.2613 170.941 51.232 170.896 51.2053 170.832L50.8373 169.888H48.8933L48.5333 170.832C48.5066 170.896 48.4746 170.941 48.4373 170.968C48.4053 170.989 48.352 171 48.2773 171H47.3093ZM50.5333 168.968L49.8693 167.24L49.1973 168.968H50.5333ZM55.3477 171.12C54.4411 171.12 53.7477 170.872 53.2677 170.376C52.7931 169.88 52.5557 169.181 52.5557 168.28C52.5557 167.379 52.7931 166.68 53.2677 166.184C53.7477 165.688 54.4411 165.44 55.3477 165.44C56.2491 165.44 56.9371 165.688 57.4117 166.184C57.8917 166.68 58.1317 167.379 58.1317 168.28C58.1317 169.181 57.8917 169.88 57.4117 170.376C56.9371 170.872 56.2491 171.12 55.3477 171.12ZM55.3477 170.168C55.8331 170.168 56.1984 170.011 56.4437 169.696C56.6944 169.376 56.8197 168.904 56.8197 168.28C56.8197 167.656 56.6944 167.187 56.4437 166.872C56.1984 166.552 55.8331 166.392 55.3477 166.392C54.8571 166.392 54.4864 166.552 54.2357 166.872C53.9904 167.187 53.8677 167.656 53.8677 168.28C53.8677 168.904 53.9904 169.376 54.2357 169.696C54.4864 170.011 54.8571 170.168 55.3477 170.168ZM60.5147 171.12C60.0987 171.12 59.6987 171.077 59.3147 170.992C58.936 170.901 58.6293 170.776 58.3947 170.616C58.3147 170.557 58.2747 170.504 58.2747 170.456C58.2747 170.424 58.288 170.387 58.3147 170.344L58.6427 169.824C58.6747 169.771 58.7093 169.744 58.7467 169.744C58.7787 169.744 58.8187 169.76 58.8667 169.792C59.064 169.904 59.2907 169.995 59.5467 170.064C59.8027 170.133 60.0613 170.168 60.3227 170.168C60.632 170.168 60.8613 170.12 61.0107 170.024C61.16 169.923 61.2347 169.765 61.2347 169.552C61.2347 169.408 61.1973 169.291 61.1227 169.2C61.0533 169.109 60.9467 169.029 60.8027 168.96C60.664 168.891 60.448 168.8 60.1547 168.688C59.8133 168.56 59.5227 168.429 59.2827 168.296C59.048 168.163 58.8533 167.992 58.6987 167.784C58.5493 167.571 58.4747 167.312 58.4747 167.008C58.4747 166.501 58.6587 166.115 59.0267 165.848C59.3947 165.576 59.88 165.44 60.4827 165.44C61.2773 165.44 61.8853 165.589 62.3067 165.888C62.3867 165.952 62.4267 166.005 62.4267 166.048C62.4267 166.08 62.4133 166.117 62.3867 166.16L62.0587 166.68C62.0267 166.733 61.992 166.76 61.9547 166.76C61.9227 166.76 61.8827 166.744 61.8347 166.712C61.5093 166.499 61.1147 166.392 60.6507 166.392C60.0747 166.392 59.7867 166.6 59.7867 167.016C59.7867 167.155 59.8187 167.269 59.8827 167.36C59.952 167.445 60.0453 167.52 60.1627 167.584C60.28 167.643 60.464 167.72 60.7147 167.816L60.9387 167.904C61.328 168.059 61.6347 168.205 61.8587 168.344C62.0827 168.477 62.2533 168.643 62.3707 168.84C62.4933 169.037 62.5547 169.291 62.5547 169.6C62.5547 170.064 62.3787 170.435 62.0267 170.712C61.68 170.984 61.176 171.12 60.5147 171.12Z" fill="black"/>
<path d="M44.7593 105C44.6313 105 44.538 104.973 44.4793 104.92C44.426 104.861 44.3993 104.773 44.3993 104.656V99.912C44.3993 99.7947 44.426 99.7067 44.4793 99.648C44.538 99.5893 44.6313 99.56 44.7593 99.56H48.0793C48.2073 99.56 48.2953 99.5867 48.3433 99.64C48.3913 99.688 48.4153 99.7733 48.4153 99.896V100.192C48.4153 100.315 48.3913 100.403 48.3433 100.456C48.2953 100.509 48.2073 100.536 48.0793 100.536H45.7193V101.792H47.3673C47.4953 101.792 47.5833 101.819 47.6313 101.872C47.6793 101.92 47.7033 102.005 47.7033 102.128V102.424C47.7033 102.547 47.6793 102.635 47.6313 102.688C47.5833 102.741 47.4953 102.768 47.3673 102.768H45.7193V104.656C45.7193 104.773 45.6927 104.861 45.6393 104.92C45.586 104.973 45.4927 105 45.3593 105H44.7593ZM49.1578 105C49.0298 105 48.9364 104.973 48.8778 104.92C48.8244 104.861 48.7978 104.773 48.7978 104.656V99.904C48.7978 99.7867 48.8244 99.7013 48.8778 99.648C48.9364 99.5893 49.0324 99.56 49.1658 99.56H49.7578C49.8538 99.56 49.9284 99.5733 49.9818 99.6C50.0351 99.6213 50.0778 99.6667 50.1098 99.736L51.4938 103L52.8858 99.736C52.9178 99.6667 52.9604 99.6213 53.0138 99.6C53.0671 99.5733 53.1418 99.56 53.2378 99.56H53.8298C53.9631 99.56 54.0564 99.5893 54.1098 99.648C54.1684 99.7013 54.1978 99.7867 54.1978 99.904V104.656C54.1978 104.773 54.1684 104.861 54.1098 104.92C54.0564 104.973 53.9658 105 53.8378 105H53.3498C53.2164 105 53.1204 104.973 53.0618 104.92C53.0084 104.861 52.9818 104.773 52.9818 104.656V101.632L51.9098 104.024C51.8564 104.136 51.8031 104.216 51.7498 104.264C51.7018 104.307 51.6164 104.328 51.4938 104.328C51.3764 104.328 51.2884 104.307 51.2298 104.264C51.1764 104.216 51.1258 104.136 51.0778 104.024L50.0138 101.632V104.656C50.0138 104.773 49.9844 104.861 49.9258 104.92C49.8724 104.973 49.7791 105 49.6458 105H49.1578Z" fill="black"/>
<path d="M36.9796 39.12C36.0516 39.12 35.3316 38.8773 34.8196 38.392C34.313 37.9013 34.0596 37.1973 34.0596 36.28C34.0596 35.3573 34.3076 34.6533 34.8036 34.168C35.305 33.6827 36.0196 33.44 36.9476 33.44C37.337 33.44 37.689 33.48 38.0036 33.56C38.3236 33.6347 38.593 33.744 38.8116 33.888C38.865 33.9253 38.8916 33.968 38.8916 34.016C38.8916 34.0587 38.8756 34.104 38.8436 34.152L38.5636 34.64C38.5263 34.6987 38.489 34.728 38.4516 34.728C38.4196 34.728 38.3743 34.712 38.3156 34.68C37.9743 34.488 37.5716 34.392 37.1076 34.392C36.5583 34.392 36.1316 34.552 35.8276 34.872C35.5236 35.1867 35.3716 35.656 35.3716 36.28C35.3716 36.9093 35.529 37.3813 35.8436 37.696C36.1636 38.0107 36.5983 38.168 37.1476 38.168C37.649 38.168 38.0703 38.072 38.4116 37.88C38.4703 37.848 38.5156 37.832 38.5476 37.832C38.585 37.832 38.6223 37.8613 38.6596 37.92L38.9716 38.456C38.993 38.4933 39.0036 38.5253 39.0036 38.552C39.0036 38.584 38.9716 38.624 38.9076 38.672C38.4916 38.9707 37.849 39.12 36.9796 39.12ZM41.9141 39.12C41.0075 39.12 40.3141 38.872 39.8341 38.376C39.3595 37.88 39.1221 37.1813 39.1221 36.28C39.1221 35.3787 39.3595 34.68 39.8341 34.184C40.3141 33.688 41.0075 33.44 41.9141 33.44C42.8155 33.44 43.5035 33.688 43.9781 34.184C44.4581 34.68 44.6981 35.3787 44.6981 36.28C44.6981 37.1813 44.4581 37.88 43.9781 38.376C43.5035 38.872 42.8155 39.12 41.9141 39.12ZM41.9141 38.168C42.3995 38.168 42.7648 38.0107 43.0101 37.696C43.2608 37.376 43.3861 36.904 43.3861 36.28C43.3861 35.656 43.2608 35.1867 43.0101 34.872C42.7648 34.552 42.3995 34.392 41.9141 34.392C41.4235 34.392 41.0528 34.552 40.8021 34.872C40.5568 35.1867 40.4341 35.656 40.4341 36.28C40.4341 36.904 40.5568 37.376 40.8021 37.696C41.0528 38.0107 41.4235 38.168 41.9141 38.168ZM44.821 39C44.725 39 44.677 38.9547 44.677 38.864C44.677 38.8267 44.685 38.784 44.701 38.736L46.773 33.8C46.8104 33.7093 46.8504 33.648 46.893 33.616C46.941 33.5787 47.0077 33.56 47.093 33.56H47.677C47.7624 33.56 47.8264 33.5787 47.869 33.616C47.9117 33.648 47.9517 33.7093 47.989 33.8L50.061 38.736C50.077 38.784 50.085 38.8267 50.085 38.864C50.085 38.9547 50.037 39 49.941 39H48.973C48.8984 39 48.8424 38.9893 48.805 38.968C48.773 38.9413 48.7437 38.896 48.717 38.832L48.349 37.888H46.405L46.045 38.832C46.0184 38.896 45.9864 38.9413 45.949 38.968C45.917 38.9893 45.8637 39 45.789 39H44.821ZM48.045 36.968L47.381 35.24L46.709 36.968H48.045ZM51.1109 39C50.9829 39 50.8896 38.9733 50.8309 38.92C50.7776 38.8613 50.7509 38.7733 50.7509 38.656V33.912C50.7509 33.7947 50.7776 33.7067 50.8309 33.648C50.8896 33.5893 50.9829 33.56 51.1109 33.56H53.1349C54.4896 33.56 55.1669 34.152 55.1669 35.336C55.1669 35.7147 55.0869 36.0373 54.9269 36.304C54.7669 36.5653 54.5296 36.7653 54.2149 36.904L55.0549 38.744C55.0709 38.7813 55.0789 38.8187 55.0789 38.856C55.0789 38.952 55.0229 39 54.9109 39H54.0229C53.9482 39 53.8922 38.992 53.8549 38.976C53.8176 38.9547 53.7856 38.912 53.7589 38.848L53.0229 37.088H52.0709V38.656C52.0709 38.7733 52.0442 38.8613 51.9909 38.92C51.9376 38.9733 51.8442 39 51.7109 39H51.1109ZM52.9429 36.136C53.2469 36.136 53.4736 36.072 53.6229 35.944C53.7776 35.816 53.8549 35.6133 53.8549 35.336C53.8549 35.0587 53.7856 34.856 53.6469 34.728C53.5082 34.6 53.3002 34.536 53.0229 34.536H52.0709V36.136H52.9429ZM57.9092 39.12C57.4932 39.12 57.0932 39.0773 56.7092 38.992C56.3305 38.9013 56.0239 38.776 55.7892 38.616C55.7092 38.5573 55.6692 38.504 55.6692 38.456C55.6692 38.424 55.6825 38.3867 55.7092 38.344L56.0372 37.824C56.0692 37.7707 56.1039 37.744 56.1412 37.744C56.1732 37.744 56.2132 37.76 56.2612 37.792C56.4585 37.904 56.6852 37.9947 56.9412 38.064C57.1972 38.1333 57.4559 38.168 57.7172 38.168C58.0265 38.168 58.2559 38.12 58.4052 38.024C58.5545 37.9227 58.6292 37.7653 58.6292 37.552C58.6292 37.408 58.5919 37.2907 58.5172 37.2C58.4479 37.1093 58.3412 37.0293 58.1972 36.96C58.0585 36.8907 57.8425 36.8 57.5492 36.688C57.2079 36.56 56.9172 36.4293 56.6772 36.296C56.4425 36.1627 56.2479 35.992 56.0932 35.784C55.9439 35.5707 55.8692 35.312 55.8692 35.008C55.8692 34.5013 56.0532 34.1147 56.4212 33.848C56.7892 33.576 57.2745 33.44 57.8772 33.44C58.6719 33.44 59.2799 33.5893 59.7012 33.888C59.7812 33.952 59.8212 34.0053 59.8212 34.048C59.8212 34.08 59.8079 34.1173 59.7812 34.16L59.4532 34.68C59.4212 34.7333 59.3865 34.76 59.3492 34.76C59.3172 34.76 59.2772 34.744 59.2292 34.712C58.9039 34.4987 58.5092 34.392 58.0452 34.392C57.4692 34.392 57.1812 34.6 57.1812 35.016C57.1812 35.1547 57.2132 35.2693 57.2772 35.36C57.3465 35.4453 57.4399 35.52 57.5572 35.584C57.6745 35.6427 57.8585 35.72 58.1092 35.816L58.3332 35.904C58.7225 36.0587 59.0292 36.2053 59.2532 36.344C59.4772 36.4773 59.6479 36.6427 59.7652 36.84C59.8879 37.0373 59.9492 37.2907 59.9492 37.6C59.9492 38.064 59.7732 38.4347 59.4212 38.712C59.0745 38.984 58.5705 39.12 57.9092 39.12ZM60.9625 39C60.8345 39 60.7411 38.9733 60.6825 38.92C60.6291 38.8613 60.6025 38.7733 60.6025 38.656V33.912C60.6025 33.7947 60.6291 33.7067 60.6825 33.648C60.7411 33.5893 60.8345 33.56 60.9625 33.56H64.2825C64.4105 33.56 64.4985 33.5867 64.5465 33.64C64.5945 33.688 64.6185 33.7733 64.6185 33.896V34.192C64.6185 34.3147 64.5945 34.4027 64.5465 34.456C64.4985 34.5093 64.4105 34.536 64.2825 34.536H61.9225V35.8H63.5705C63.6985 35.8 63.7865 35.8267 63.8345 35.88C63.8825 35.928 63.9065 36.0133 63.9065 36.136V36.416C63.9065 36.5387 63.8825 36.6267 63.8345 36.68C63.7865 36.7333 63.6985 36.76 63.5705 36.76H61.9225V38.032H64.2745C64.4025 38.032 64.4905 38.0587 64.5385 38.112C64.5865 38.1653 64.6105 38.2533 64.6105 38.376V38.664C64.6105 38.7867 64.5865 38.8747 64.5385 38.928C64.4905 38.976 64.4025 39 64.2745 39H60.9625Z" fill="black"/>
<path d="M152.65 39C152.522 39 152.429 38.9733 152.37 38.92C152.317 38.8613 152.29 38.7733 152.29 38.656V33.912C152.29 33.7947 152.317 33.7067 152.37 33.648C152.429 33.5893 152.522 33.56 152.65 33.56H155.97C156.098 33.56 156.186 33.5867 156.234 33.64C156.282 33.688 156.306 33.7733 156.306 33.896V34.192C156.306 34.3147 156.282 34.4027 156.234 34.456C156.186 34.5093 156.098 34.536 155.97 34.536H153.61V35.792H155.258C155.386 35.792 155.474 35.8187 155.522 35.872C155.57 35.92 155.594 36.0053 155.594 36.128V36.424C155.594 36.5467 155.57 36.6347 155.522 36.688C155.474 36.7413 155.386 36.768 155.258 36.768H153.61V38.656C153.61 38.7733 153.583 38.8613 153.53 38.92C153.477 38.9733 153.383 39 153.25 39H152.65ZM157.166 39C157.038 39 156.944 38.9733 156.886 38.92C156.832 38.8613 156.806 38.7733 156.806 38.656V33.912C156.806 33.7947 156.832 33.7067 156.886 33.648C156.944 33.5893 157.038 33.56 157.166 33.56H157.766C157.899 33.56 157.992 33.5893 158.046 33.648C158.099 33.7013 158.126 33.7893 158.126 33.912V38.656C158.126 38.7733 158.099 38.8613 158.046 38.92C157.992 38.9733 157.899 39 157.766 39H157.166ZM159.298 39C159.17 39 159.077 38.9733 159.018 38.92C158.965 38.8613 158.938 38.7733 158.938 38.656V33.904C158.938 33.7867 158.965 33.7013 159.018 33.648C159.077 33.5893 159.173 33.56 159.306 33.56H159.802C159.893 33.56 159.96 33.5733 160.002 33.6C160.05 33.6213 160.101 33.6667 160.154 33.736L162.394 36.896V33.912C162.394 33.7947 162.421 33.7067 162.474 33.648C162.533 33.5893 162.626 33.56 162.754 33.56H163.354C163.488 33.56 163.581 33.5893 163.634 33.648C163.688 33.7013 163.714 33.7893 163.714 33.912V38.656C163.714 38.7733 163.688 38.8613 163.634 38.92C163.581 38.9733 163.488 39 163.354 39H162.85C162.765 39 162.698 38.9893 162.65 38.968C162.608 38.9413 162.56 38.8933 162.506 38.824L160.258 35.672V38.656C160.258 38.7733 160.232 38.8613 160.178 38.92C160.125 38.9733 160.032 39 159.898 39H159.298ZM164.892 39C164.764 39 164.671 38.9733 164.612 38.92C164.559 38.8613 164.532 38.7733 164.532 38.656V33.912C164.532 33.7947 164.559 33.7067 164.612 33.648C164.671 33.5893 164.764 33.56 164.892 33.56H168.212C168.34 33.56 168.428 33.5867 168.476 33.64C168.524 33.688 168.548 33.7733 168.548 33.896V34.192C168.548 34.3147 168.524 34.4027 168.476 34.456C168.428 34.5093 168.34 34.536 168.212 34.536H165.852V35.8H167.5C167.628 35.8 167.716 35.8267 167.764 35.88C167.812 35.928 167.836 36.0133 167.836 36.136V36.416C167.836 36.5387 167.812 36.6267 167.764 36.68C167.716 36.7333 167.628 36.76 167.5 36.76H165.852V38.032H168.204C168.332 38.032 168.42 38.0587 168.468 38.112C168.516 38.1653 168.54 38.2533 168.54 38.376V38.664C168.54 38.7867 168.516 38.8747 168.468 38.928C168.42 38.976 168.332 39 168.204 39H164.892Z" fill="black"/>
<path d="M147.413 105.12C146.997 105.12 146.597 105.077 146.213 104.992C145.834 104.901 145.528 104.776 145.293 104.616C145.213 104.557 145.173 104.504 145.173 104.456C145.173 104.424 145.186 104.387 145.213 104.344L145.541 103.824C145.573 103.771 145.608 103.744 145.645 103.744C145.677 103.744 145.717 103.76 145.765 103.792C145.962 103.904 146.189 103.995 146.445 104.064C146.701 104.133 146.96 104.168 147.221 104.168C147.53 104.168 147.76 104.12 147.909 104.024C148.058 103.923 148.133 103.765 148.133 103.552C148.133 103.408 148.096 103.291 148.021 103.2C147.952 103.109 147.845 103.029 147.701 102.96C147.562 102.891 147.346 102.8 147.053 102.688C146.712 102.56 146.421 102.429 146.181 102.296C145.946 102.163 145.752 101.992 145.597 101.784C145.448 101.571 145.373 101.312 145.373 101.008C145.373 100.501 145.557 100.115 145.925 99.848C146.293 99.576 146.778 99.44 147.381 99.44C148.176 99.44 148.784 99.5893 149.205 99.888C149.285 99.952 149.325 100.005 149.325 100.048C149.325 100.08 149.312 100.117 149.285 100.16L148.957 100.68C148.925 100.733 148.89 100.76 148.853 100.76C148.821 100.76 148.781 100.744 148.733 100.712C148.408 100.499 148.013 100.392 147.549 100.392C146.973 100.392 146.685 100.6 146.685 101.016C146.685 101.155 146.717 101.269 146.781 101.36C146.85 101.445 146.944 101.52 147.061 101.584C147.178 101.643 147.362 101.72 147.613 101.816L147.837 101.904C148.226 102.059 148.533 102.205 148.757 102.344C148.981 102.477 149.152 102.643 149.269 102.84C149.392 103.037 149.453 103.291 149.453 103.6C149.453 104.064 149.277 104.435 148.925 104.712C148.578 104.984 148.074 105.12 147.413 105.12ZM150.466 105C150.338 105 150.245 104.973 150.186 104.92C150.133 104.861 150.106 104.773 150.106 104.656V99.912C150.106 99.7947 150.133 99.7067 150.186 99.648C150.245 99.5893 150.338 99.56 150.466 99.56H152.466C153.837 99.56 154.522 100.173 154.522 101.4C154.522 102.621 153.837 103.232 152.466 103.232H151.426V104.656C151.426 104.773 151.4 104.861 151.346 104.92C151.293 104.973 151.2 105 151.066 105H150.466ZM152.378 102.264C152.933 102.264 153.21 101.976 153.21 101.4C153.21 100.824 152.933 100.536 152.378 100.536H151.434V102.264H152.378ZM155.38 105C155.252 105 155.159 104.973 155.1 104.92C155.047 104.861 155.02 104.773 155.02 104.656V99.912C155.02 99.7947 155.047 99.7067 155.1 99.648C155.159 99.5893 155.252 99.56 155.38 99.56H157.404C158.759 99.56 159.436 100.152 159.436 101.336C159.436 101.715 159.356 102.037 159.196 102.304C159.036 102.565 158.799 102.765 158.484 102.904L159.324 104.744C159.34 104.781 159.348 104.819 159.348 104.856C159.348 104.952 159.292 105 159.18 105H158.292C158.218 105 158.162 104.992 158.124 104.976C158.087 104.955 158.055 104.912 158.028 104.848L157.292 103.088H156.34V104.656C156.34 104.773 156.314 104.861 156.26 104.92C156.207 104.973 156.114 105 155.98 105H155.38ZM157.212 102.136C157.516 102.136 157.743 102.072 157.892 101.944C158.047 101.816 158.124 101.613 158.124 101.336C158.124 101.059 158.055 100.856 157.916 100.728C157.778 100.6 157.57 100.536 157.292 100.536H156.34V102.136H157.212ZM160.451 105C160.323 105 160.229 104.973 160.171 104.92C160.117 104.861 160.091 104.773 160.091 104.656V99.912C160.091 99.7947 160.117 99.7067 160.171 99.648C160.229 99.5893 160.323 99.56 160.451 99.56H163.771C163.899 99.56 163.987 99.5867 164.035 99.64C164.083 99.688 164.107 99.7733 164.107 99.896V100.192C164.107 100.315 164.083 100.403 164.035 100.456C163.987 100.509 163.899 100.536 163.771 100.536H161.411V101.8H163.059C163.187 101.8 163.275 101.827 163.323 101.88C163.371 101.928 163.395 102.013 163.395 102.136V102.416C163.395 102.539 163.371 102.627 163.323 102.68C163.275 102.733 163.187 102.76 163.059 102.76H161.411V104.032H163.763C163.891 104.032 163.979 104.059 164.027 104.112C164.075 104.165 164.099 104.253 164.099 104.376V104.664C164.099 104.787 164.075 104.875 164.027 104.928C163.979 104.976 163.891 105 163.763 105H160.451ZM164.676 105C164.58 105 164.532 104.955 164.532 104.864C164.532 104.827 164.54 104.784 164.556 104.736L166.628 99.8C166.666 99.7093 166.706 99.648 166.748 99.616C166.796 99.5787 166.863 99.56 166.948 99.56H167.532C167.618 99.56 167.682 99.5787 167.724 99.616C167.767 99.648 167.807 99.7093 167.844 99.8L169.916 104.736C169.932 104.784 169.94 104.827 169.94 104.864C169.94 104.955 169.892 105 169.796 105H168.828C168.754 105 168.698 104.989 168.66 104.968C168.628 104.941 168.599 104.896 168.572 104.832L168.204 103.888H166.26L165.9 104.832C165.874 104.896 165.842 104.941 165.804 104.968C165.772 104.989 165.719 105 165.644 105H164.676ZM167.9 102.968L167.236 101.24L166.564 102.968H167.9ZM170.966 105C170.838 105 170.745 104.973 170.686 104.92C170.633 104.861 170.606 104.773 170.606 104.656V99.912C170.606 99.7947 170.633 99.7067 170.686 99.648C170.745 99.5893 170.838 99.56 170.966 99.56H172.646C173.558 99.56 174.252 99.7787 174.726 100.216C175.201 100.653 175.438 101.341 175.438 102.28C175.438 103.208 175.198 103.893 174.718 104.336C174.238 104.779 173.548 105 172.646 105H170.966ZM172.71 104.032C173.185 104.032 173.54 103.901 173.774 103.64C174.009 103.373 174.126 102.92 174.126 102.28C174.126 101.64 174.009 101.189 173.774 100.928C173.54 100.667 173.185 100.536 172.71 100.536H171.926V104.032H172.71Z" fill="black"/>
<path d="M90.433 132.3C90.305 132.3 90.2117 132.273 90.153 132.22C90.0997 132.161 90.073 132.073 90.073 131.956V127.212C90.073 127.095 90.0997 127.007 90.153 126.948C90.2117 126.889 90.305 126.86 90.433 126.86H92.113C93.025 126.86 93.7184 127.079 94.193 127.516C94.6677 127.953 94.905 128.641 94.905 129.58C94.905 130.508 94.665 131.193 94.185 131.636C93.705 132.079 93.0144 132.3 92.113 132.3H90.433ZM92.177 131.332C92.6517 131.332 93.0064 131.201 93.241 130.94C93.4757 130.673 93.593 130.22 93.593 129.58C93.593 128.94 93.4757 128.489 93.241 128.228C93.0064 127.967 92.6517 127.836 92.177 127.836H91.393V131.332H92.177ZM95.9174 132.3C95.7894 132.3 95.6961 132.273 95.6374 132.22C95.5841 132.161 95.5574 132.073 95.5574 131.956V127.212C95.5574 127.095 95.5841 127.007 95.6374 126.948C95.6961 126.889 95.7894 126.86 95.9174 126.86H99.2374C99.3654 126.86 99.4534 126.887 99.5014 126.94C99.5494 126.988 99.5734 127.073 99.5734 127.196V127.492C99.5734 127.615 99.5494 127.703 99.5014 127.756C99.4534 127.809 99.3654 127.836 99.2374 127.836H96.8774V129.1H98.5254C98.6534 129.1 98.7414 129.127 98.7894 129.18C98.8374 129.228 98.8614 129.313 98.8614 129.436V129.716C98.8614 129.839 98.8374 129.927 98.7894 129.98C98.7414 130.033 98.6534 130.06 98.5254 130.06H96.8774V131.332H99.2294C99.3574 131.332 99.4454 131.359 99.4934 131.412C99.5414 131.465 99.5654 131.553 99.5654 131.676V131.964C99.5654 132.087 99.5414 132.175 99.4934 132.228C99.4454 132.276 99.3574 132.3 99.2294 132.3H95.9174ZM100.511 132.3C100.383 132.3 100.29 132.273 100.231 132.22C100.178 132.161 100.151 132.073 100.151 131.956V127.204C100.151 127.087 100.178 127.001 100.231 126.948C100.29 126.889 100.386 126.86 100.519 126.86H101.015C101.106 126.86 101.172 126.873 101.215 126.9C101.263 126.921 101.314 126.967 101.367 127.036L103.607 130.196V127.212C103.607 127.095 103.634 127.007 103.687 126.948C103.746 126.889 103.839 126.86 103.967 126.86H104.567C104.7 126.86 104.794 126.889 104.847 126.948C104.9 127.001 104.927 127.089 104.927 127.212V131.956C104.927 132.073 104.9 132.161 104.847 132.22C104.794 132.273 104.7 132.3 104.567 132.3H104.063C103.978 132.3 103.911 132.289 103.863 132.268C103.82 132.241 103.772 132.193 103.719 132.124L101.471 128.972V131.956C101.471 132.073 101.444 132.161 101.391 132.22C101.338 132.273 101.244 132.3 101.111 132.3H100.511ZM107.833 132.42C107.417 132.42 107.017 132.377 106.633 132.292C106.254 132.201 105.948 132.076 105.713 131.916C105.633 131.857 105.593 131.804 105.593 131.756C105.593 131.724 105.606 131.687 105.633 131.644L105.961 131.124C105.993 131.071 106.028 131.044 106.065 131.044C106.097 131.044 106.137 131.06 106.185 131.092C106.382 131.204 106.609 131.295 106.865 131.364C107.121 131.433 107.38 131.468 107.641 131.468C107.95 131.468 108.18 131.42 108.329 131.324C108.478 131.223 108.553 131.065 108.553 130.852C108.553 130.708 108.516 130.591 108.441 130.5C108.372 130.409 108.265 130.329 108.121 130.26C107.982 130.191 107.766 130.1 107.473 129.988C107.132 129.86 106.841 129.729 106.601 129.596C106.366 129.463 106.172 129.292 106.017 129.084C105.868 128.871 105.793 128.612 105.793 128.308C105.793 127.801 105.977 127.415 106.345 127.148C106.713 126.876 107.198 126.74 107.801 126.74C108.596 126.74 109.204 126.889 109.625 127.188C109.705 127.252 109.745 127.305 109.745 127.348C109.745 127.38 109.732 127.417 109.705 127.46L109.377 127.98C109.345 128.033 109.31 128.06 109.273 128.06C109.241 128.06 109.201 128.044 109.153 128.012C108.828 127.799 108.433 127.692 107.969 127.692C107.393 127.692 107.105 127.9 107.105 128.316C107.105 128.455 107.137 128.569 107.201 128.66C107.27 128.745 107.364 128.82 107.481 128.884C107.598 128.943 107.782 129.02 108.033 129.116L108.257 129.204C108.646 129.359 108.953 129.505 109.177 129.644C109.401 129.777 109.572 129.943 109.689 130.14C109.812 130.337 109.873 130.591 109.873 130.9C109.873 131.364 109.697 131.735 109.345 132.012C108.998 132.284 108.494 132.42 107.833 132.42ZM110.886 132.3C110.758 132.3 110.665 132.273 110.606 132.22C110.553 132.161 110.526 132.073 110.526 131.956V127.212C110.526 127.095 110.553 127.007 110.606 126.948C110.665 126.889 110.758 126.86 110.886 126.86H111.486C111.619 126.86 111.713 126.889 111.766 126.948C111.819 127.001 111.846 127.089 111.846 127.212V131.956C111.846 132.073 111.819 132.161 111.766 132.22C111.713 132.273 111.619 132.3 111.486 132.3H110.886ZM114.355 132.3C114.222 132.3 114.126 132.273 114.067 132.22C114.014 132.161 113.987 132.073 113.987 131.956V127.836H112.675C112.547 127.836 112.459 127.812 112.411 127.764C112.363 127.711 112.339 127.623 112.339 127.5V127.204C112.339 127.081 112.363 126.993 112.411 126.94C112.459 126.887 112.547 126.86 112.675 126.86H116.627C116.755 126.86 116.843 126.887 116.891 126.94C116.944 126.993 116.971 127.081 116.971 127.204V127.5C116.971 127.617 116.944 127.703 116.891 127.756C116.843 127.809 116.755 127.836 116.627 127.836H115.315V131.956C115.315 132.073 115.286 132.161 115.227 132.22C115.174 132.273 115.08 132.3 114.947 132.3H114.355ZM119.562 132.3C119.434 132.3 119.34 132.273 119.282 132.22C119.228 132.161 119.202 132.073 119.202 131.956V130.444L117.266 127.124C117.239 127.081 117.226 127.039 117.226 126.996C117.226 126.959 117.239 126.927 117.266 126.9C117.298 126.873 117.338 126.86 117.386 126.86H118.346C118.42 126.86 118.474 126.873 118.506 126.9C118.538 126.921 118.57 126.961 118.602 127.02L119.866 129.236L121.13 127.02C121.162 126.961 121.194 126.921 121.226 126.9C121.258 126.873 121.308 126.86 121.378 126.86H122.346C122.394 126.86 122.431 126.873 122.458 126.9C122.49 126.927 122.506 126.959 122.506 126.996C122.506 127.039 122.492 127.081 122.466 127.124L120.53 130.452V131.956C120.53 132.073 120.5 132.161 120.442 132.22C120.388 132.273 120.295 132.3 120.162 132.3H119.562Z" fill="black"/>
<path d="M92.552 192.08C92.4347 192.08 92.3547 192.056 92.312 192.008C92.2693 191.955 92.248 191.875 92.248 191.768V191.416C92.248 191.309 92.2693 191.232 92.312 191.184C92.3547 191.131 92.4347 191.104 92.552 191.104H95.208C95.32 191.104 95.3973 191.131 95.44 191.184C95.488 191.232 95.512 191.309 95.512 191.416V191.768C95.512 191.875 95.488 191.955 95.44 192.008C95.3973 192.056 95.32 192.08 95.208 192.08H92.552ZM99.4166 194C99.2833 194 99.1873 193.973 99.1286 193.92C99.0753 193.861 99.0486 193.773 99.0486 193.656V188.792C99.0486 188.701 99.0646 188.64 99.0966 188.608C99.1286 188.576 99.1926 188.56 99.2886 188.56H100.033C100.129 188.56 100.193 188.576 100.225 188.608C100.262 188.64 100.281 188.701 100.281 188.792V190.496C100.627 190.192 101.078 190.04 101.633 190.04C102.07 190.04 102.419 190.16 102.681 190.4C102.947 190.635 103.081 190.987 103.081 191.456V193.656C103.081 193.773 103.051 193.861 102.993 193.92C102.939 193.973 102.849 194 102.721 194H102.121C101.987 194 101.891 193.973 101.833 193.92C101.779 193.861 101.753 193.773 101.753 193.656V191.536C101.753 191.328 101.705 191.179 101.609 191.088C101.513 190.997 101.366 190.952 101.169 190.952C100.95 190.952 100.761 191.013 100.601 191.136C100.446 191.253 100.369 191.408 100.369 191.6V193.656C100.369 193.773 100.342 193.861 100.289 193.92C100.235 193.973 100.142 194 100.009 194H99.4166ZM104.333 189.624C104.184 189.624 104.067 189.581 103.981 189.496C103.896 189.411 103.853 189.307 103.853 189.184V189C103.853 188.877 103.896 188.773 103.981 188.688C104.067 188.603 104.184 188.56 104.333 188.56H104.797C104.952 188.56 105.072 188.603 105.157 188.688C105.243 188.773 105.285 188.877 105.285 189V189.184C105.285 189.307 105.243 189.411 105.157 189.496C105.072 189.581 104.952 189.624 104.797 189.624H104.333ZM104.269 194C104.136 194 104.043 193.973 103.989 193.92C103.936 193.861 103.909 193.773 103.909 193.656V190.512C103.909 190.389 103.936 190.301 103.989 190.248C104.043 190.189 104.136 190.16 104.269 190.16H104.861C104.995 190.16 105.088 190.189 105.141 190.248C105.2 190.307 105.229 190.395 105.229 190.512V193.656C105.229 193.773 105.2 193.861 105.141 193.92C105.088 193.973 104.995 194 104.861 194H104.269ZM108.175 195.36C107.85 195.36 107.535 195.328 107.231 195.264C106.927 195.2 106.693 195.115 106.527 195.008C106.49 194.976 106.471 194.941 106.471 194.904C106.471 194.877 106.479 194.851 106.495 194.824L106.783 194.336C106.799 194.309 106.815 194.285 106.831 194.264C106.853 194.248 106.874 194.24 106.895 194.24C106.906 194.24 106.938 194.251 106.991 194.272C107.242 194.4 107.597 194.464 108.055 194.464C108.359 194.464 108.583 194.395 108.727 194.256C108.877 194.117 108.951 193.885 108.951 193.56C108.695 193.8 108.335 193.92 107.871 193.92C107.253 193.92 106.775 193.76 106.439 193.44C106.109 193.12 105.943 192.664 105.943 192.072C105.943 191.411 106.143 190.907 106.543 190.56C106.949 190.213 107.538 190.04 108.311 190.04C108.685 190.04 109.045 190.093 109.391 190.2C109.738 190.301 110.023 190.429 110.247 190.584V193.192C110.247 193.848 110.082 194.373 109.751 194.768C109.421 195.163 108.895 195.36 108.175 195.36ZM108.159 192.984C108.405 192.984 108.597 192.923 108.735 192.8C108.879 192.672 108.951 192.493 108.951 192.264V191.064C108.77 190.989 108.533 190.952 108.239 190.952C107.914 190.957 107.669 191.04 107.503 191.2C107.338 191.36 107.255 191.627 107.255 192C107.255 192.336 107.327 192.584 107.471 192.744C107.621 192.904 107.85 192.984 108.159 192.984ZM111.432 194C111.299 194 111.203 193.973 111.144 193.92C111.091 193.861 111.064 193.773 111.064 193.656V188.792C111.064 188.701 111.08 188.64 111.112 188.608C111.144 188.576 111.208 188.56 111.304 188.56H112.048C112.144 188.56 112.208 188.576 112.24 188.608C112.278 188.64 112.296 188.701 112.296 188.792V190.496C112.643 190.192 113.094 190.04 113.648 190.04C114.086 190.04 114.435 190.16 114.696 190.4C114.963 190.635 115.096 190.987 115.096 191.456V193.656C115.096 193.773 115.067 193.861 115.008 193.92C114.955 193.973 114.864 194 114.736 194H114.136C114.003 194 113.907 193.973 113.848 193.92C113.795 193.861 113.768 193.773 113.768 193.656V191.536C113.768 191.328 113.72 191.179 113.624 191.088C113.528 190.997 113.382 190.952 113.184 190.952C112.966 190.952 112.776 191.013 112.616 191.136C112.462 191.253 112.384 191.408 112.384 191.6V193.656C112.384 193.773 112.358 193.861 112.304 193.92C112.251 193.973 112.158 194 112.024 194H111.432Z" fill="black"/>
<path d="M92.552 202.08C92.4347 202.08 92.3547 202.056 92.312 202.008C92.2693 201.955 92.248 201.875 92.248 201.768V201.416C92.248 201.309 92.2693 201.232 92.312 201.184C92.3547 201.131 92.4347 201.104 92.552 201.104H95.208C95.32 201.104 95.3973 201.131 95.44 201.184C95.488 201.232 95.512 201.309 95.512 201.416V201.768C95.512 201.875 95.488 201.955 95.44 202.008C95.3973 202.056 95.32 202.08 95.208 202.08H92.552ZM99.4166 204C99.2833 204 99.1873 203.973 99.1286 203.92C99.0753 203.861 99.0486 203.773 99.0486 203.656V200.392C99.0486 200.301 99.0646 200.24 99.0966 200.208C99.1286 200.176 99.1926 200.16 99.2886 200.16H99.8806C99.9446 200.16 99.99 200.171 100.017 200.192C100.049 200.213 100.067 200.251 100.073 200.304L100.105 200.592C100.259 200.416 100.433 200.28 100.625 200.184C100.817 200.088 101.046 200.04 101.313 200.04C101.777 200.04 102.105 200.224 102.297 200.592C102.595 200.224 103.006 200.04 103.529 200.04C103.923 200.04 104.233 200.157 104.457 200.392C104.681 200.621 104.793 200.971 104.793 201.44V203.656C104.793 203.773 104.763 203.861 104.705 203.92C104.651 203.973 104.561 204 104.433 204H103.929C103.795 204 103.702 203.973 103.649 203.92C103.595 203.861 103.569 203.773 103.569 203.656V201.52C103.569 201.317 103.529 201.173 103.449 201.088C103.374 200.997 103.259 200.952 103.105 200.952C102.929 200.952 102.785 201.011 102.673 201.128C102.566 201.245 102.513 201.4 102.513 201.592V203.656C102.513 203.773 102.483 203.861 102.425 203.92C102.371 203.973 102.281 204 102.153 204H101.697C101.563 204 101.467 203.973 101.409 203.92C101.355 203.861 101.329 203.773 101.329 203.656V201.488C101.329 201.307 101.291 201.173 101.217 201.088C101.147 200.997 101.038 200.952 100.889 200.952C100.707 200.952 100.558 201.013 100.441 201.136C100.329 201.253 100.273 201.411 100.273 201.608V203.656C100.273 203.773 100.246 203.861 100.193 203.92C100.139 203.973 100.046 204 99.9126 204H99.4166ZM106.052 199.624C105.903 199.624 105.785 199.581 105.7 199.496C105.615 199.411 105.572 199.307 105.572 199.184V199C105.572 198.877 105.615 198.773 105.7 198.688C105.785 198.603 105.903 198.56 106.052 198.56H106.516C106.671 198.56 106.791 198.603 106.876 198.688C106.961 198.773 107.004 198.877 107.004 199V199.184C107.004 199.307 106.961 199.411 106.876 199.496C106.791 199.581 106.671 199.624 106.516 199.624H106.052ZM105.988 204C105.855 204 105.761 203.973 105.708 203.92C105.655 203.861 105.628 203.773 105.628 203.656V200.512C105.628 200.389 105.655 200.301 105.708 200.248C105.761 200.189 105.855 200.16 105.988 200.16H106.58C106.713 200.16 106.807 200.189 106.86 200.248C106.919 200.307 106.948 200.395 106.948 200.512V203.656C106.948 203.773 106.919 203.861 106.86 203.92C106.807 203.973 106.713 204 106.58 204H105.988ZM109.998 204.12C108.441 204.12 107.662 203.435 107.662 202.064C107.662 201.664 107.737 201.312 107.886 201.008C108.041 200.699 108.265 200.461 108.558 200.296C108.851 200.125 109.201 200.04 109.606 200.04C109.835 200.04 110.041 200.067 110.222 200.12C110.409 200.168 110.558 200.24 110.67 200.336V198.912C110.67 198.789 110.697 198.701 110.75 198.648C110.803 198.589 110.897 198.56 111.03 198.56H111.606C111.734 198.56 111.825 198.589 111.878 198.648C111.937 198.707 111.966 198.795 111.966 198.912V203.576C111.747 203.736 111.462 203.867 111.11 203.968C110.758 204.069 110.387 204.12 109.998 204.12ZM110.03 203.208C110.291 203.208 110.505 203.163 110.67 203.072V201.608C110.67 201.389 110.601 201.227 110.462 201.12C110.323 201.008 110.137 200.952 109.902 200.952C109.587 200.952 109.353 201.053 109.198 201.256C109.049 201.453 108.974 201.728 108.974 202.08C108.974 202.485 109.062 202.776 109.238 202.952C109.414 203.123 109.678 203.208 110.03 203.208Z" fill="black"/>
<path d="M92.552 212.08C92.4347 212.08 92.3547 212.056 92.312 212.008C92.2693 211.955 92.248 211.875 92.248 211.768V211.416C92.248 211.309 92.2693 211.232 92.312 211.184C92.3547 211.131 92.4347 211.104 92.552 211.104H95.208C95.32 211.104 95.3973 211.131 95.44 211.184C95.488 211.232 95.512 211.309 95.512 211.416V211.768C95.512 211.875 95.488 211.955 95.44 212.008C95.3973 212.056 95.32 212.08 95.208 212.08H92.552ZM99.4086 214C99.2806 214 99.1873 213.973 99.1286 213.92C99.0753 213.861 99.0486 213.773 99.0486 213.656V208.912C99.0486 208.795 99.0753 208.707 99.1286 208.648C99.1873 208.589 99.2806 208.56 99.4086 208.56H100.009C100.142 208.56 100.235 208.589 100.289 208.648C100.342 208.701 100.369 208.789 100.369 208.912V213.656C100.369 213.773 100.342 213.861 100.289 213.92C100.235 213.973 100.142 214 100.009 214H99.4086ZM103.261 214.12C102.552 214.12 102 213.939 101.605 213.576C101.216 213.208 101.021 212.709 101.021 212.08C101.021 211.451 101.216 210.955 101.605 210.592C102 210.224 102.552 210.04 103.261 210.04C103.976 210.04 104.528 210.224 104.917 210.592C105.312 210.955 105.509 211.451 105.509 212.08C105.509 212.709 105.312 213.208 104.917 213.576C104.528 213.939 103.976 214.12 103.261 214.12ZM103.261 213.168C103.565 213.168 103.797 213.077 103.957 212.896C104.117 212.715 104.197 212.443 104.197 212.08C104.197 211.723 104.117 211.453 103.957 211.272C103.797 211.091 103.565 211 103.261 211C102.963 211 102.733 211.091 102.573 211.272C102.413 211.453 102.333 211.723 102.333 212.08C102.333 212.437 102.413 212.709 102.573 212.896C102.733 213.077 102.963 213.168 103.261 213.168ZM106.81 214C106.736 214 106.68 213.987 106.642 213.96C106.61 213.933 106.584 213.885 106.562 213.816L105.498 210.336C105.493 210.32 105.49 210.299 105.49 210.272C105.49 210.197 105.538 210.16 105.634 210.16H106.466C106.536 210.16 106.584 210.171 106.61 210.192C106.642 210.213 106.664 210.251 106.674 210.304L107.234 212.44L107.906 210.656C107.928 210.597 107.952 210.557 107.978 210.536C108.01 210.509 108.058 210.496 108.122 210.496H108.546C108.61 210.496 108.656 210.509 108.682 210.536C108.714 210.557 108.741 210.597 108.762 210.656L109.426 212.44L109.994 210.304C110.005 210.251 110.024 210.213 110.05 210.192C110.077 210.171 110.125 210.16 110.194 210.16H111.034C111.157 210.16 111.202 210.219 111.17 210.336L110.098 213.816C110.077 213.885 110.048 213.933 110.01 213.96C109.978 213.987 109.928 214 109.858 214H109.234C109.165 214 109.114 213.987 109.082 213.96C109.05 213.933 109.021 213.885 108.994 213.816L108.33 212.016L107.666 213.816C107.64 213.885 107.61 213.933 107.578 213.96C107.546 213.987 107.496 214 107.426 214H106.81Z" fill="black"/>
<path d="M142.476 171.12C141.548 171.12 140.828 170.877 140.316 170.392C139.809 169.901 139.556 169.197 139.556 168.28C139.556 167.357 139.804 166.653 140.3 166.168C140.801 165.683 141.516 165.44 142.444 165.44C142.833 165.44 143.185 165.48 143.5 165.56C143.82 165.635 144.089 165.744 144.308 165.888C144.361 165.925 144.388 165.968 144.388 166.016C144.388 166.059 144.372 166.104 144.34 166.152L144.06 166.64C144.022 166.699 143.985 166.728 143.948 166.728C143.916 166.728 143.87 166.712 143.812 166.68C143.47 166.488 143.068 166.392 142.604 166.392C142.054 166.392 141.628 166.552 141.324 166.872C141.02 167.187 140.868 167.656 140.868 168.28C140.868 168.909 141.025 169.381 141.34 169.696C141.66 170.011 142.094 170.168 142.644 170.168C143.145 170.168 143.566 170.072 143.908 169.88C143.966 169.848 144.012 169.832 144.044 169.832C144.081 169.832 144.118 169.861 144.156 169.92L144.468 170.456C144.489 170.493 144.5 170.525 144.5 170.552C144.5 170.584 144.468 170.624 144.404 170.672C143.988 170.971 143.345 171.12 142.476 171.12ZM145.498 171C145.37 171 145.276 170.973 145.218 170.92C145.164 170.861 145.138 170.773 145.138 170.656V165.912C145.138 165.795 145.164 165.707 145.218 165.648C145.276 165.589 145.37 165.56 145.498 165.56H146.098C146.231 165.56 146.324 165.589 146.378 165.648C146.431 165.701 146.458 165.789 146.458 165.912V167.784H148.682V165.912C148.682 165.795 148.708 165.707 148.762 165.648C148.82 165.589 148.916 165.56 149.05 165.56H149.642C149.775 165.56 149.868 165.589 149.922 165.648C149.98 165.707 150.01 165.795 150.01 165.912V170.656C150.01 170.773 149.98 170.861 149.922 170.92C149.868 170.973 149.775 171 149.642 171H149.05C148.916 171 148.82 170.973 148.762 170.92C148.708 170.861 148.682 170.773 148.682 170.656V168.752H146.458V170.656C146.458 170.773 146.431 170.861 146.378 170.92C146.324 170.973 146.231 171 146.098 171H145.498ZM150.817 171C150.721 171 150.673 170.955 150.673 170.864C150.673 170.827 150.681 170.784 150.697 170.736L152.769 165.8C152.806 165.709 152.846 165.648 152.889 165.616C152.937 165.579 153.004 165.56 153.089 165.56H153.673C153.758 165.56 153.822 165.579 153.865 165.616C153.908 165.648 153.948 165.709 153.985 165.8L156.057 170.736C156.073 170.784 156.081 170.827 156.081 170.864C156.081 170.955 156.033 171 155.937 171H154.969C154.894 171 154.838 170.989 154.801 170.968C154.769 170.941 154.74 170.896 154.713 170.832L154.345 169.888H152.401L152.041 170.832C152.014 170.896 151.982 170.941 151.945 170.968C151.913 170.989 151.86 171 151.785 171H150.817ZM154.041 168.968L153.377 167.24L152.705 168.968H154.041ZM158.856 171.12C157.949 171.12 157.256 170.872 156.776 170.376C156.301 169.88 156.064 169.181 156.064 168.28C156.064 167.379 156.301 166.68 156.776 166.184C157.256 165.688 157.949 165.44 158.856 165.44C159.757 165.44 160.445 165.688 160.92 166.184C161.4 166.68 161.64 167.379 161.64 168.28C161.64 169.181 161.4 169.88 160.92 170.376C160.445 170.872 159.757 171.12 158.856 171.12ZM158.856 170.168C159.341 170.168 159.706 170.011 159.952 169.696C160.202 169.376 160.328 168.904 160.328 168.28C160.328 167.656 160.202 167.187 159.952 166.872C159.706 166.552 159.341 166.392 158.856 166.392C158.365 166.392 157.994 166.552 157.744 166.872C157.498 167.187 157.376 167.656 157.376 168.28C157.376 168.904 157.498 169.376 157.744 169.696C157.994 170.011 158.365 170.168 158.856 170.168ZM164.022 171.12C163.606 171.12 163.206 171.077 162.822 170.992C162.444 170.901 162.137 170.776 161.902 170.616C161.822 170.557 161.782 170.504 161.782 170.456C161.782 170.424 161.796 170.387 161.822 170.344L162.15 169.824C162.182 169.771 162.217 169.744 162.254 169.744C162.286 169.744 162.326 169.76 162.374 169.792C162.572 169.904 162.798 169.995 163.054 170.064C163.31 170.133 163.569 170.168 163.83 170.168C164.14 170.168 164.369 170.12 164.518 170.024C164.668 169.923 164.742 169.765 164.742 169.552C164.742 169.408 164.705 169.291 164.63 169.2C164.561 169.109 164.454 169.029 164.31 168.96C164.172 168.891 163.956 168.8 163.662 168.688C163.321 168.56 163.03 168.429 162.79 168.296C162.556 168.163 162.361 167.992 162.206 167.784C162.057 167.571 161.982 167.312 161.982 167.008C161.982 166.501 162.166 166.115 162.534 165.848C162.902 165.576 163.388 165.44 163.99 165.44C164.785 165.44 165.393 165.589 165.814 165.888C165.894 165.952 165.934 166.005 165.934 166.048C165.934 166.08 165.921 166.117 165.894 166.16L165.566 166.68C165.534 166.733 165.5 166.76 165.462 166.76C165.43 166.76 165.39 166.744 165.342 166.712C165.017 166.499 164.622 166.392 164.158 166.392C163.582 166.392 163.294 166.6 163.294 167.016C163.294 167.155 163.326 167.269 163.39 167.36C163.46 167.445 163.553 167.52 163.67 167.584C163.788 167.643 163.972 167.72 164.222 167.816L164.446 167.904C164.836 168.059 165.142 168.205 165.366 168.344C165.59 168.477 165.761 168.643 165.878 168.84C166.001 169.037 166.062 169.291 166.062 169.6C166.062 170.064 165.886 170.435 165.534 170.712C165.188 170.984 164.684 171.12 164.022 171.12ZM169.959 171C169.831 171 169.737 170.973 169.679 170.92C169.625 170.861 169.599 170.773 169.599 170.656V165.912C169.599 165.795 169.625 165.707 169.679 165.648C169.737 165.589 169.831 165.56 169.959 165.56H172.303C172.889 165.56 173.329 165.696 173.623 165.968C173.916 166.235 174.063 166.605 174.063 167.08C174.063 167.331 174.001 167.555 173.879 167.752C173.761 167.949 173.599 168.091 173.391 168.176C173.94 168.357 174.215 168.76 174.215 169.384C174.215 169.688 174.143 169.963 173.999 170.208C173.86 170.453 173.647 170.648 173.359 170.792C173.076 170.931 172.724 171 172.303 171H169.959ZM172.079 167.76C172.292 167.76 172.457 167.707 172.575 167.6C172.692 167.493 172.751 167.339 172.751 167.136C172.751 166.917 172.695 166.763 172.583 166.672C172.476 166.576 172.308 166.528 172.079 166.528H170.919V167.76H172.079ZM172.207 170.032C172.441 170.032 172.615 169.971 172.727 169.848C172.844 169.72 172.903 169.555 172.903 169.352C172.903 169.123 172.836 168.952 172.703 168.84C172.569 168.723 172.383 168.664 172.143 168.664H170.919V170.032H172.207ZM176.085 171C175.994 171 175.922 170.984 175.869 170.952C175.821 170.915 175.786 170.853 175.765 170.768L174.525 165.776C174.514 165.733 174.509 165.707 174.509 165.696C174.509 165.605 174.57 165.56 174.693 165.56H175.581C175.666 165.56 175.728 165.576 175.765 165.608C175.802 165.635 175.826 165.68 175.837 165.744L176.477 168.728L177.277 166.168C177.304 166.093 177.336 166.043 177.373 166.016C177.41 165.989 177.469 165.976 177.549 165.976H177.997C178.077 165.976 178.136 165.989 178.173 166.016C178.21 166.043 178.242 166.093 178.269 166.168L179.077 168.728L179.709 165.744C179.72 165.68 179.744 165.635 179.781 165.608C179.818 165.576 179.88 165.56 179.965 165.56H180.861C180.984 165.56 181.045 165.605 181.045 165.696C181.045 165.707 181.04 165.733 181.029 165.776L179.781 170.768C179.76 170.853 179.722 170.915 179.669 170.952C179.621 170.984 179.552 171 179.461 171H178.885C178.794 171 178.725 170.984 178.677 170.952C178.629 170.915 178.592 170.853 178.565 170.768L177.773 168.112L176.989 170.768C176.962 170.853 176.925 170.915 176.877 170.952C176.829 170.984 176.76 171 176.669 171H176.085Z" fill="black"/>
<path d="M74.4593 239C74.3313 239 74.238 238.973 74.1793 238.92C74.126 238.861 74.0993 238.773 74.0993 238.656V233.912C74.0993 233.795 74.126 233.707 74.1793 233.648C74.238 233.589 74.3313 233.56 74.4593 233.56H77.7793C77.9073 233.56 77.9953 233.587 78.0433 233.64C78.0913 233.688 78.1153 233.773 78.1153 233.896V234.192C78.1153 234.315 78.0913 234.403 78.0433 234.456C77.9953 234.509 77.9073 234.536 77.7793 234.536H75.4193V235.792H77.0673C77.1953 235.792 77.2833 235.819 77.3313 235.872C77.3793 235.92 77.4033 236.005 77.4033 236.128V236.424C77.4033 236.547 77.3793 236.635 77.3313 236.688C77.2833 236.741 77.1953 236.768 77.0673 236.768H75.4193V238.656C75.4193 238.773 75.3926 238.861 75.3393 238.92C75.286 238.973 75.1926 239 75.0593 239H74.4593ZM78.8577 239C78.7297 239 78.6364 238.973 78.5777 238.92C78.5244 238.861 78.4977 238.773 78.4977 238.656V233.904C78.4977 233.787 78.5244 233.701 78.5777 233.648C78.6364 233.589 78.7324 233.56 78.8657 233.56H79.4577C79.5537 233.56 79.6284 233.573 79.6817 233.6C79.7351 233.621 79.7777 233.667 79.8097 233.736L81.1937 237L82.5857 233.736C82.6177 233.667 82.6604 233.621 82.7137 233.6C82.7671 233.573 82.8417 233.56 82.9377 233.56H83.5297C83.6631 233.56 83.7564 233.589 83.8097 233.648C83.8684 233.701 83.8977 233.787 83.8977 233.904V238.656C83.8977 238.773 83.8684 238.861 83.8097 238.92C83.7564 238.973 83.6657 239 83.5377 239H83.0497C82.9164 239 82.8204 238.973 82.7617 238.92C82.7084 238.861 82.6817 238.773 82.6817 238.656V235.632L81.6097 238.024C81.5564 238.136 81.5031 238.216 81.4497 238.264C81.4017 238.307 81.3164 238.328 81.1937 238.328C81.0764 238.328 80.9884 238.307 80.9297 238.264C80.8764 238.216 80.8257 238.136 80.7777 238.024L79.7137 235.632V238.656C79.7137 238.773 79.6844 238.861 79.6257 238.92C79.5724 238.973 79.4791 239 79.3457 239H78.8577Z" fill="black"/>
<path d="M121.07 239.12C120.654 239.12 120.254 239.077 119.87 238.992C119.491 238.901 119.185 238.776 118.95 238.616C118.87 238.557 118.83 238.504 118.83 238.456C118.83 238.424 118.843 238.387 118.87 238.344L119.198 237.824C119.23 237.771 119.265 237.744 119.302 237.744C119.334 237.744 119.374 237.76 119.422 237.792C119.619 237.904 119.846 237.995 120.102 238.064C120.358 238.133 120.617 238.168 120.878 238.168C121.187 238.168 121.417 238.12 121.566 238.024C121.715 237.923 121.79 237.765 121.79 237.552C121.79 237.408 121.753 237.291 121.678 237.2C121.609 237.109 121.502 237.029 121.358 236.96C121.219 236.891 121.003 236.8 120.71 236.688C120.369 236.56 120.078 236.429 119.838 236.296C119.603 236.163 119.409 235.992 119.254 235.784C119.105 235.571 119.03 235.312 119.03 235.008C119.03 234.501 119.214 234.115 119.582 233.848C119.95 233.576 120.435 233.44 121.038 233.44C121.833 233.44 122.441 233.589 122.862 233.888C122.942 233.952 122.982 234.005 122.982 234.048C122.982 234.08 122.969 234.117 122.942 234.16L122.614 234.68C122.582 234.733 122.547 234.76 122.51 234.76C122.478 234.76 122.438 234.744 122.39 234.712C122.065 234.499 121.67 234.392 121.206 234.392C120.63 234.392 120.342 234.6 120.342 235.016C120.342 235.155 120.374 235.269 120.438 235.36C120.507 235.445 120.601 235.52 120.718 235.584C120.835 235.643 121.019 235.72 121.27 235.816L121.494 235.904C121.883 236.059 122.19 236.205 122.414 236.344C122.638 236.477 122.809 236.643 122.926 236.84C123.049 237.037 123.11 237.291 123.11 237.6C123.11 238.064 122.934 238.435 122.582 238.712C122.235 238.984 121.731 239.12 121.07 239.12ZM125.58 239C125.452 239 125.359 238.973 125.3 238.92C125.247 238.861 125.22 238.773 125.22 238.656V237.144L123.284 233.824C123.257 233.781 123.244 233.739 123.244 233.696C123.244 233.659 123.257 233.627 123.284 233.6C123.316 233.573 123.356 233.56 123.404 233.56H124.364C124.439 233.56 124.492 233.573 124.524 233.6C124.556 233.621 124.588 233.661 124.62 233.72L125.884 235.936L127.148 233.72C127.18 233.661 127.212 233.621 127.244 233.6C127.276 233.573 127.327 233.56 127.396 233.56H128.364C128.412 233.56 128.449 233.573 128.476 233.6C128.508 233.627 128.524 233.659 128.524 233.696C128.524 233.739 128.511 233.781 128.484 233.824L126.548 237.152V238.656C126.548 238.773 126.519 238.861 126.46 238.92C126.407 238.973 126.313 239 126.18 239H125.58ZM129.178 239C129.05 239 128.957 238.973 128.898 238.92C128.845 238.861 128.818 238.773 128.818 238.656V233.904C128.818 233.787 128.845 233.701 128.898 233.648C128.957 233.589 129.053 233.56 129.186 233.56H129.682C129.773 233.56 129.839 233.573 129.882 233.6C129.93 233.621 129.981 233.667 130.034 233.736L132.274 236.896V233.912C132.274 233.795 132.301 233.707 132.354 233.648C132.413 233.589 132.506 233.56 132.634 233.56H133.234C133.367 233.56 133.461 233.589 133.514 233.648C133.567 233.701 133.594 233.789 133.594 233.912V238.656C133.594 238.773 133.567 238.861 133.514 238.92C133.461 238.973 133.367 239 133.234 239H132.73C132.645 239 132.578 238.989 132.53 238.968C132.487 238.941 132.439 238.893 132.386 238.824L130.138 235.672V238.656C130.138 238.773 130.111 238.861 130.058 238.92C130.005 238.973 129.911 239 129.778 239H129.178ZM137.172 239.12C136.244 239.12 135.524 238.877 135.012 238.392C134.505 237.901 134.252 237.197 134.252 236.28C134.252 235.357 134.5 234.653 134.996 234.168C135.497 233.683 136.212 233.44 137.14 233.44C137.529 233.44 137.881 233.48 138.196 233.56C138.516 233.635 138.785 233.744 139.004 233.888C139.057 233.925 139.084 233.968 139.084 234.016C139.084 234.059 139.068 234.104 139.036 234.152L138.756 234.64C138.718 234.699 138.681 234.728 138.644 234.728C138.612 234.728 138.566 234.712 138.508 234.68C138.166 234.488 137.764 234.392 137.3 234.392C136.75 234.392 136.324 234.552 136.02 234.872C135.716 235.187 135.564 235.656 135.564 236.28C135.564 236.909 135.721 237.381 136.036 237.696C136.356 238.011 136.79 238.168 137.34 238.168C137.841 238.168 138.262 238.072 138.604 237.88C138.662 237.848 138.708 237.832 138.74 237.832C138.777 237.832 138.814 237.861 138.852 237.92L139.164 238.456C139.185 238.493 139.196 238.525 139.196 238.552C139.196 238.584 139.164 238.624 139.1 238.672C138.684 238.971 138.041 239.12 137.172 239.12Z" fill="black"/>
<path d="M166.613 239.12C166.197 239.12 165.797 239.077 165.413 238.992C165.035 238.901 164.728 238.776 164.493 238.616C164.413 238.557 164.373 238.504 164.373 238.456C164.373 238.424 164.387 238.387 164.413 238.344L164.741 237.824C164.773 237.771 164.808 237.744 164.845 237.744C164.877 237.744 164.917 237.76 164.965 237.792C165.163 237.904 165.389 237.995 165.645 238.064C165.901 238.133 166.16 238.168 166.421 238.168C166.731 238.168 166.96 238.12 167.109 238.024C167.259 237.923 167.333 237.765 167.333 237.552C167.333 237.408 167.296 237.291 167.221 237.2C167.152 237.109 167.045 237.029 166.901 236.96C166.763 236.891 166.547 236.8 166.253 236.688C165.912 236.56 165.621 236.429 165.381 236.296C165.147 236.163 164.952 235.992 164.797 235.784C164.648 235.571 164.573 235.312 164.573 235.008C164.573 234.501 164.757 234.115 165.125 233.848C165.493 233.576 165.979 233.44 166.581 233.44C167.376 233.44 167.984 233.589 168.405 233.888C168.485 233.952 168.525 234.005 168.525 234.048C168.525 234.08 168.512 234.117 168.485 234.16L168.157 234.68C168.125 234.733 168.091 234.76 168.053 234.76C168.021 234.76 167.981 234.744 167.933 234.712C167.608 234.499 167.213 234.392 166.749 234.392C166.173 234.392 165.885 234.6 165.885 235.016C165.885 235.155 165.917 235.269 165.981 235.36C166.051 235.445 166.144 235.52 166.261 235.584C166.379 235.643 166.563 235.72 166.813 235.816L167.037 235.904C167.427 236.059 167.733 236.205 167.957 236.344C168.181 236.477 168.352 236.643 168.469 236.84C168.592 237.037 168.653 237.291 168.653 237.6C168.653 238.064 168.477 238.435 168.125 238.712C167.779 238.984 167.275 239.12 166.613 239.12ZM169.666 239C169.538 239 169.445 238.973 169.386 238.92C169.333 238.861 169.306 238.773 169.306 238.656V233.912C169.306 233.795 169.333 233.707 169.386 233.648C169.445 233.589 169.538 233.56 169.666 233.56H171.666C173.037 233.56 173.722 234.173 173.722 235.4C173.722 236.621 173.037 237.232 171.666 237.232H170.626V238.656C170.626 238.773 170.6 238.861 170.546 238.92C170.493 238.973 170.4 239 170.266 239H169.666ZM171.578 236.264C172.133 236.264 172.41 235.976 172.41 235.4C172.41 234.824 172.133 234.536 171.578 234.536H170.634V236.264H171.578ZM174.581 239C174.453 239 174.359 238.973 174.301 238.92C174.247 238.861 174.221 238.773 174.221 238.656V233.912C174.221 233.795 174.247 233.707 174.301 233.648C174.359 233.589 174.453 233.56 174.581 233.56H176.605C177.959 233.56 178.637 234.152 178.637 235.336C178.637 235.715 178.557 236.037 178.397 236.304C178.237 236.565 177.999 236.765 177.685 236.904L178.525 238.744C178.541 238.781 178.549 238.819 178.549 238.856C178.549 238.952 178.493 239 178.381 239H177.493C177.418 239 177.362 238.992 177.325 238.976C177.287 238.955 177.255 238.912 177.229 238.848L176.493 237.088H175.541V238.656C175.541 238.773 175.514 238.861 175.461 238.92C175.407 238.973 175.314 239 175.181 239H174.581ZM176.413 236.136C176.717 236.136 176.943 236.072 177.093 235.944C177.247 235.816 177.325 235.613 177.325 235.336C177.325 235.059 177.255 234.856 177.117 234.728C176.978 234.6 176.77 234.536 176.493 234.536H175.541V236.136H176.413ZM179.651 239C179.523 239 179.429 238.973 179.371 238.92C179.317 238.861 179.291 238.773 179.291 238.656V233.912C179.291 233.795 179.317 233.707 179.371 233.648C179.429 233.589 179.523 233.56 179.651 233.56H182.971C183.099 233.56 183.187 233.587 183.235 233.64C183.283 233.688 183.307 233.773 183.307 233.896V234.192C183.307 234.315 183.283 234.403 183.235 234.456C183.187 234.509 183.099 234.536 182.971 234.536H180.611V235.8H182.259C182.387 235.8 182.475 235.827 182.523 235.88C182.571 235.928 182.595 236.013 182.595 236.136V236.416C182.595 236.539 182.571 236.627 182.523 236.68C182.475 236.733 182.387 236.76 182.259 236.76H180.611V238.032H182.963C183.091 238.032 183.179 238.059 183.227 238.112C183.275 238.165 183.299 238.253 183.299 238.376V238.664C183.299 238.787 183.275 238.875 183.227 238.928C183.179 238.976 183.091 239 182.963 239H179.651ZM183.877 239C183.781 239 183.733 238.955 183.733 238.864C183.733 238.827 183.741 238.784 183.757 238.736L185.829 233.8C185.866 233.709 185.906 233.648 185.949 233.616C185.997 233.579 186.063 233.56 186.149 233.56H186.733C186.818 233.56 186.882 233.579 186.925 233.616C186.967 233.648 187.007 233.709 187.045 233.8L189.117 238.736C189.133 238.784 189.141 238.827 189.141 238.864C189.141 238.955 189.093 239 188.997 239H188.029C187.954 239 187.898 238.989 187.861 238.968C187.829 238.941 187.799 238.896 187.773 238.832L187.405 237.888H185.461L185.101 238.832C185.074 238.896 185.042 238.941 185.005 238.968C184.973 238.989 184.919 239 184.845 239H183.877ZM187.101 236.968L186.437 235.24L185.765 236.968H187.101ZM190.166 239C190.038 239 189.945 238.973 189.886 238.92C189.833 238.861 189.806 238.773 189.806 238.656V233.912C189.806 233.795 189.833 233.707 189.886 233.648C189.945 233.589 190.038 233.56 190.166 233.56H191.846C192.758 233.56 193.452 233.779 193.926 234.216C194.401 234.653 194.638 235.341 194.638 236.28C194.638 237.208 194.398 237.893 193.918 238.336C193.438 238.779 192.748 239 191.846 239H190.166ZM191.91 238.032C192.385 238.032 192.74 237.901 192.974 237.64C193.209 237.373 193.326 236.92 193.326 236.28C193.326 235.64 193.209 235.189 192.974 234.928C192.74 234.667 192.385 234.536 191.91 234.536H191.126V238.032H191.91Z" fill="black"/>
<path d="M61.1758 297.12C60.2478 297.12 59.5278 296.877 59.0158 296.392C58.5091 295.901 58.2558 295.197 58.2558 294.28C58.2558 293.357 58.5038 292.653 58.9998 292.168C59.5011 291.683 60.2158 291.44 61.1438 291.44C61.5331 291.44 61.8851 291.48 62.1998 291.56C62.5198 291.635 62.7891 291.744 63.0078 291.888C63.0611 291.925 63.0878 291.968 63.0878 292.016C63.0878 292.059 63.0718 292.104 63.0398 292.152L62.7598 292.64C62.7225 292.699 62.6851 292.728 62.6478 292.728C62.6158 292.728 62.5705 292.712 62.5118 292.68C62.1705 292.488 61.7678 292.392 61.3038 292.392C60.7545 292.392 60.3278 292.552 60.0238 292.872C59.7198 293.187 59.5678 293.656 59.5678 294.28C59.5678 294.909 59.7251 295.381 60.0398 295.696C60.3598 296.011 60.7945 296.168 61.3438 296.168C61.8451 296.168 62.2665 296.072 62.6078 295.88C62.6665 295.848 62.7118 295.832 62.7438 295.832C62.7811 295.832 62.8185 295.861 62.8558 295.92L63.1678 296.456C63.1891 296.493 63.1998 296.525 63.1998 296.552C63.1998 296.584 63.1678 296.624 63.1038 296.672C62.6878 296.971 62.0451 297.12 61.1758 297.12ZM64.1977 297C64.0697 297 63.9764 296.973 63.9177 296.92C63.8644 296.861 63.8377 296.773 63.8377 296.656V291.912C63.8377 291.795 63.8644 291.707 63.9177 291.648C63.9764 291.589 64.0697 291.56 64.1977 291.56H64.7977C64.931 291.56 65.0244 291.589 65.0777 291.648C65.131 291.701 65.1577 291.789 65.1577 291.912V293.784H67.3817V291.912C67.3817 291.795 67.4084 291.707 67.4617 291.648C67.5204 291.589 67.6164 291.56 67.7497 291.56H68.3417C68.475 291.56 68.5684 291.589 68.6217 291.648C68.6804 291.707 68.7097 291.795 68.7097 291.912V296.656C68.7097 296.773 68.6804 296.861 68.6217 296.92C68.5684 296.973 68.475 297 68.3417 297H67.7497C67.6164 297 67.5204 296.973 67.4617 296.92C67.4084 296.861 67.3817 296.773 67.3817 296.656V294.752H65.1577V296.656C65.1577 296.773 65.131 296.861 65.0777 296.92C65.0244 296.973 64.931 297 64.7977 297H64.1977ZM69.5172 297C69.4212 297 69.3732 296.955 69.3732 296.864C69.3732 296.827 69.3812 296.784 69.3972 296.736L71.4692 291.8C71.5065 291.709 71.5465 291.648 71.5892 291.616C71.6372 291.579 71.7039 291.56 71.7892 291.56H72.3732C72.4585 291.56 72.5225 291.579 72.5652 291.616C72.6079 291.648 72.6479 291.709 72.6852 291.8L74.7572 296.736C74.7732 296.784 74.7812 296.827 74.7812 296.864C74.7812 296.955 74.7332 297 74.6372 297H73.6692C73.5945 297 73.5385 296.989 73.5012 296.968C73.4692 296.941 73.4399 296.896 73.4132 296.832L73.0452 295.888H71.1012L70.7412 296.832C70.7145 296.896 70.6825 296.941 70.6452 296.968C70.6132 296.989 70.5599 297 70.4852 297H69.5172ZM72.7412 294.968L72.0772 293.24L71.4052 294.968H72.7412ZM77.5556 297.12C76.649 297.12 75.9556 296.872 75.4756 296.376C75.001 295.88 74.7636 295.181 74.7636 294.28C74.7636 293.379 75.001 292.68 75.4756 292.184C75.9556 291.688 76.649 291.44 77.5556 291.44C78.457 291.44 79.145 291.688 79.6196 292.184C80.0996 292.68 80.3396 293.379 80.3396 294.28C80.3396 295.181 80.0996 295.88 79.6196 296.376C79.145 296.872 78.457 297.12 77.5556 297.12ZM77.5556 296.168C78.041 296.168 78.4063 296.011 78.6516 295.696C78.9023 295.376 79.0276 294.904 79.0276 294.28C79.0276 293.656 78.9023 293.187 78.6516 292.872C78.4063 292.552 78.041 292.392 77.5556 292.392C77.065 292.392 76.6943 292.552 76.4436 292.872C76.1983 293.187 76.0756 293.656 76.0756 294.28C76.0756 294.904 76.1983 295.376 76.4436 295.696C76.6943 296.011 77.065 296.168 77.5556 296.168ZM82.7226 297.12C82.3066 297.12 81.9066 297.077 81.5226 296.992C81.1439 296.901 80.8372 296.776 80.6026 296.616C80.5226 296.557 80.4826 296.504 80.4826 296.456C80.4826 296.424 80.4959 296.387 80.5226 296.344L80.8506 295.824C80.8826 295.771 80.9172 295.744 80.9546 295.744C80.9866 295.744 81.0266 295.76 81.0746 295.792C81.2719 295.904 81.4986 295.995 81.7546 296.064C82.0106 296.133 82.2692 296.168 82.5306 296.168C82.8399 296.168 83.0692 296.12 83.2186 296.024C83.3679 295.923 83.4426 295.765 83.4426 295.552C83.4426 295.408 83.4052 295.291 83.3306 295.2C83.2612 295.109 83.1546 295.029 83.0106 294.96C82.8719 294.891 82.6559 294.8 82.3626 294.688C82.0212 294.56 81.7306 294.429 81.4906 294.296C81.2559 294.163 81.0612 293.992 80.9066 293.784C80.7572 293.571 80.6826 293.312 80.6826 293.008C80.6826 292.501 80.8666 292.115 81.2346 291.848C81.6026 291.576 82.0879 291.44 82.6906 291.44C83.4852 291.44 84.0932 291.589 84.5146 291.888C84.5946 291.952 84.6346 292.005 84.6346 292.048C84.6346 292.08 84.6212 292.117 84.5946 292.16L84.2666 292.68C84.2346 292.733 84.1999 292.76 84.1626 292.76C84.1306 292.76 84.0906 292.744 84.0426 292.712C83.7172 292.499 83.3226 292.392 82.8586 292.392C82.2826 292.392 81.9946 292.6 81.9946 293.016C81.9946 293.155 82.0266 293.269 82.0906 293.36C82.1599 293.445 82.2532 293.52 82.3706 293.584C82.4879 293.643 82.6719 293.72 82.9226 293.816L83.1466 293.904C83.5359 294.059 83.8426 294.205 84.0666 294.344C84.2906 294.477 84.4612 294.643 84.5786 294.84C84.7012 295.037 84.7626 295.291 84.7626 295.6C84.7626 296.064 84.5866 296.435 84.2346 296.712C83.8879 296.984 83.3839 297.12 82.7226 297.12ZM88.6586 297C88.5306 297 88.4373 296.973 88.3786 296.92C88.3253 296.861 88.2986 296.773 88.2986 296.656V291.912C88.2986 291.795 88.3253 291.707 88.3786 291.648C88.4373 291.589 88.5306 291.56 88.6586 291.56H91.0026C91.5893 291.56 92.0293 291.696 92.3226 291.968C92.616 292.235 92.7626 292.605 92.7626 293.08C92.7626 293.331 92.7013 293.555 92.5786 293.752C92.4613 293.949 92.2986 294.091 92.0906 294.176C92.64 294.357 92.9146 294.76 92.9146 295.384C92.9146 295.688 92.8426 295.963 92.6986 296.208C92.56 296.453 92.3466 296.648 92.0586 296.792C91.776 296.931 91.424 297 91.0026 297H88.6586ZM90.7786 293.76C90.992 293.76 91.1573 293.707 91.2746 293.6C91.392 293.493 91.4506 293.339 91.4506 293.136C91.4506 292.917 91.3946 292.763 91.2826 292.672C91.176 292.576 91.008 292.528 90.7786 292.528H89.6186V293.76H90.7786ZM90.9066 296.032C91.1413 296.032 91.3146 295.971 91.4266 295.848C91.544 295.72 91.6026 295.555 91.6026 295.352C91.6026 295.123 91.536 294.952 91.4026 294.84C91.2693 294.723 91.0826 294.664 90.8426 294.664H89.6186V296.032H90.9066ZM94.7849 297C94.6943 297 94.6223 296.984 94.5689 296.952C94.5209 296.915 94.4863 296.853 94.4649 296.768L93.2249 291.776C93.2143 291.733 93.2089 291.707 93.2089 291.696C93.2089 291.605 93.2703 291.56 93.3929 291.56H94.2809C94.3663 291.56 94.4276 291.576 94.4649 291.608C94.5023 291.635 94.5263 291.68 94.5369 291.744L95.1769 294.728L95.9769 292.168C96.0036 292.093 96.0356 292.043 96.0729 292.016C96.1103 291.989 96.1689 291.976 96.2489 291.976H96.6969C96.7769 291.976 96.8356 291.989 96.8729 292.016C96.9103 292.043 96.9423 292.093 96.9689 292.168L97.7769 294.728L98.4089 291.744C98.4196 291.68 98.4436 291.635 98.4809 291.608C98.5183 291.576 98.5796 291.56 98.6649 291.56H99.5609C99.6836 291.56 99.7449 291.605 99.7449 291.696C99.7449 291.707 99.7396 291.733 99.7289 291.776L98.4809 296.768C98.4596 296.853 98.4223 296.915 98.3689 296.952C98.3209 296.984 98.2516 297 98.1609 297H97.5849C97.4943 297 97.4249 296.984 97.3769 296.952C97.3289 296.915 97.2916 296.853 97.2649 296.768L96.4729 294.112L95.6889 296.768C95.6623 296.853 95.6249 296.915 95.5769 296.952C95.5289 296.984 95.4596 297 95.3689 297H94.7849Z" fill="black"/>
<path d="M113.488 297.12C113.072 297.12 112.672 297.077 112.288 296.992C111.909 296.901 111.603 296.776 111.368 296.616C111.288 296.557 111.248 296.504 111.248 296.456C111.248 296.424 111.261 296.387 111.288 296.344L111.616 295.824C111.648 295.771 111.683 295.744 111.72 295.744C111.752 295.744 111.792 295.76 111.84 295.792C112.037 295.904 112.264 295.995 112.52 296.064C112.776 296.133 113.035 296.168 113.296 296.168C113.605 296.168 113.835 296.12 113.984 296.024C114.133 295.923 114.208 295.765 114.208 295.552C114.208 295.408 114.171 295.291 114.096 295.2C114.027 295.109 113.92 295.029 113.776 294.96C113.637 294.891 113.421 294.8 113.128 294.688C112.787 294.56 112.496 294.429 112.256 294.296C112.021 294.163 111.827 293.992 111.672 293.784C111.523 293.571 111.448 293.312 111.448 293.008C111.448 292.501 111.632 292.115 112 291.848C112.368 291.576 112.853 291.44 113.456 291.44C114.251 291.44 114.859 291.589 115.28 291.888C115.36 291.952 115.4 292.005 115.4 292.048C115.4 292.08 115.387 292.117 115.36 292.16L115.032 292.68C115 292.733 114.965 292.76 114.928 292.76C114.896 292.76 114.856 292.744 114.808 292.712C114.483 292.499 114.088 292.392 113.624 292.392C113.048 292.392 112.76 292.6 112.76 293.016C112.76 293.155 112.792 293.269 112.856 293.36C112.925 293.445 113.019 293.52 113.136 293.584C113.253 293.643 113.437 293.72 113.688 293.816L113.912 293.904C114.301 294.059 114.608 294.205 114.832 294.344C115.056 294.477 115.227 294.643 115.344 294.84C115.467 295.037 115.528 295.291 115.528 295.6C115.528 296.064 115.352 296.435 115 296.712C114.653 296.984 114.149 297.12 113.488 297.12ZM115.814 297C115.718 297 115.67 296.955 115.67 296.864C115.67 296.827 115.678 296.784 115.694 296.736L117.766 291.8C117.803 291.709 117.843 291.648 117.886 291.616C117.934 291.579 118.001 291.56 118.086 291.56H118.67C118.755 291.56 118.819 291.579 118.862 291.616C118.905 291.648 118.945 291.709 118.982 291.8L121.054 296.736C121.07 296.784 121.078 296.827 121.078 296.864C121.078 296.955 121.03 297 120.934 297H119.966C119.891 297 119.835 296.989 119.798 296.968C119.766 296.941 119.737 296.896 119.71 296.832L119.342 295.888H117.398L117.038 296.832C117.011 296.896 116.979 296.941 116.942 296.968C116.91 296.989 116.857 297 116.782 297H115.814ZM119.038 294.968L118.374 293.24L117.702 294.968H119.038ZM122.316 297C122.225 297 122.153 296.984 122.1 296.952C122.052 296.915 122.017 296.853 121.996 296.768L120.756 291.776C120.745 291.733 120.74 291.707 120.74 291.696C120.74 291.605 120.801 291.56 120.924 291.56H121.812C121.897 291.56 121.959 291.576 121.996 291.608C122.033 291.635 122.057 291.68 122.068 291.744L122.708 294.728L123.508 292.168C123.535 292.093 123.567 292.043 123.604 292.016C123.641 291.989 123.7 291.976 123.78 291.976H124.228C124.308 291.976 124.367 291.989 124.404 292.016C124.441 292.043 124.473 292.093 124.5 292.168L125.308 294.728L125.94 291.744C125.951 291.68 125.975 291.635 126.012 291.608C126.049 291.576 126.111 291.56 126.196 291.56H127.092C127.215 291.56 127.276 291.605 127.276 291.696C127.276 291.707 127.271 291.733 127.26 291.776L126.012 296.768C125.991 296.853 125.953 296.915 125.9 296.952C125.852 296.984 125.783 297 125.692 297H125.116C125.025 297 124.956 296.984 124.908 296.952C124.86 296.915 124.823 296.853 124.796 296.768L124.004 294.112L123.22 296.768C123.193 296.853 123.156 296.915 123.108 296.952C123.06 296.984 122.991 297 122.9 297H122.316ZM133.446 297.12C132.539 297.12 131.846 296.872 131.366 296.376C130.891 295.88 130.654 295.181 130.654 294.28C130.654 293.379 130.891 292.68 131.366 292.184C131.846 291.688 132.539 291.44 133.446 291.44C134.347 291.44 135.035 291.688 135.51 292.184C135.99 292.68 136.23 293.379 136.23 294.28C136.23 295.181 135.99 295.88 135.51 296.376C135.035 296.872 134.347 297.12 133.446 297.12ZM133.446 296.168C133.931 296.168 134.297 296.011 134.542 295.696C134.793 295.376 134.918 294.904 134.918 294.28C134.918 293.656 134.793 293.187 134.542 292.872C134.297 292.552 133.931 292.392 133.446 292.392C132.955 292.392 132.585 292.552 132.334 292.872C132.089 293.187 131.966 293.656 131.966 294.28C131.966 294.904 132.089 295.376 132.334 295.696C132.585 296.011 132.955 296.168 133.446 296.168ZM139.34 297.12C138.85 297.12 138.415 297.037 138.036 296.872C137.658 296.707 137.364 296.469 137.156 296.16C136.948 295.845 136.844 295.477 136.844 295.056V291.912C136.844 291.795 136.871 291.707 136.924 291.648C136.983 291.589 137.076 291.56 137.204 291.56H137.804C137.938 291.56 138.031 291.589 138.084 291.648C138.138 291.701 138.164 291.789 138.164 291.912V295.08C138.164 295.427 138.268 295.696 138.476 295.888C138.684 296.075 138.972 296.168 139.34 296.168C139.708 296.168 139.994 296.075 140.196 295.888C140.404 295.696 140.508 295.427 140.508 295.08V291.912C140.508 291.795 140.535 291.707 140.588 291.648C140.647 291.589 140.74 291.56 140.868 291.56H141.468C141.602 291.56 141.695 291.589 141.748 291.648C141.807 291.707 141.836 291.795 141.836 291.912V295.056C141.836 295.477 141.73 295.845 141.516 296.16C141.308 296.469 141.015 296.707 140.636 296.872C140.263 297.037 139.831 297.12 139.34 297.12ZM144.307 297C144.174 297 144.078 296.973 144.019 296.92C143.966 296.861 143.939 296.773 143.939 296.656V292.536H142.627C142.499 292.536 142.411 292.512 142.363 292.464C142.315 292.411 142.291 292.323 142.291 292.2V291.904C142.291 291.781 142.315 291.693 142.363 291.64C142.411 291.587 142.499 291.56 142.627 291.56H146.579C146.707 291.56 146.795 291.587 146.843 291.64C146.896 291.693 146.923 291.781 146.923 291.904V292.2C146.923 292.317 146.896 292.403 146.843 292.456C146.795 292.509 146.707 292.536 146.579 292.536H145.267V296.656C145.267 296.773 145.238 296.861 145.179 296.92C145.126 296.973 145.032 297 144.899 297H144.307Z" fill="black"/>
<path d="M163.203 297.12C162.787 297.12 162.387 297.077 162.003 296.992C161.624 296.901 161.318 296.776 161.083 296.616C161.003 296.557 160.963 296.504 160.963 296.456C160.963 296.424 160.976 296.387 161.003 296.344L161.331 295.824C161.363 295.771 161.398 295.744 161.435 295.744C161.467 295.744 161.507 295.76 161.555 295.792C161.752 295.904 161.979 295.995 162.235 296.064C162.491 296.133 162.75 296.168 163.011 296.168C163.32 296.168 163.55 296.12 163.699 296.024C163.848 295.923 163.923 295.765 163.923 295.552C163.923 295.408 163.886 295.291 163.811 295.2C163.742 295.109 163.635 295.029 163.491 294.96C163.352 294.891 163.136 294.8 162.843 294.688C162.502 294.56 162.211 294.429 161.971 294.296C161.736 294.163 161.542 293.992 161.387 293.784C161.238 293.571 161.163 293.312 161.163 293.008C161.163 292.501 161.347 292.115 161.715 291.848C162.083 291.576 162.568 291.44 163.171 291.44C163.966 291.44 164.574 291.589 164.995 291.888C165.075 291.952 165.115 292.005 165.115 292.048C165.115 292.08 165.102 292.117 165.075 292.16L164.747 292.68C164.715 292.733 164.68 292.76 164.643 292.76C164.611 292.76 164.571 292.744 164.523 292.712C164.198 292.499 163.803 292.392 163.339 292.392C162.763 292.392 162.475 292.6 162.475 293.016C162.475 293.155 162.507 293.269 162.571 293.36C162.64 293.445 162.734 293.52 162.851 293.584C162.968 293.643 163.152 293.72 163.403 293.816L163.627 293.904C164.016 294.059 164.323 294.205 164.547 294.344C164.771 294.477 164.942 294.643 165.059 294.84C165.182 295.037 165.243 295.291 165.243 295.6C165.243 296.064 165.067 296.435 164.715 296.712C164.368 296.984 163.864 297.12 163.203 297.12ZM166.256 297C166.128 297 166.035 296.973 165.976 296.92C165.923 296.861 165.896 296.773 165.896 296.656V291.912C165.896 291.795 165.923 291.707 165.976 291.648C166.035 291.589 166.128 291.56 166.256 291.56H166.856C166.99 291.56 167.083 291.589 167.136 291.648C167.19 291.701 167.216 291.789 167.216 291.912V296.656C167.216 296.773 167.19 296.861 167.136 296.92C167.083 296.973 166.99 297 166.856 297H166.256ZM168.389 297C168.261 297 168.168 296.973 168.109 296.92C168.056 296.861 168.029 296.773 168.029 296.656V291.904C168.029 291.787 168.056 291.701 168.109 291.648C168.168 291.589 168.264 291.56 168.397 291.56H168.893C168.984 291.56 169.05 291.573 169.093 291.6C169.141 291.621 169.192 291.667 169.245 291.736L171.485 294.896V291.912C171.485 291.795 171.512 291.707 171.565 291.648C171.624 291.589 171.717 291.56 171.845 291.56H172.445C172.578 291.56 172.672 291.589 172.725 291.648C172.778 291.701 172.805 291.789 172.805 291.912V296.656C172.805 296.773 172.778 296.861 172.725 296.92C172.672 296.973 172.578 297 172.445 297H171.941C171.856 297 171.789 296.989 171.741 296.968C171.698 296.941 171.65 296.893 171.597 296.824L169.349 293.672V296.656C169.349 296.773 169.322 296.861 169.269 296.92C169.216 296.973 169.122 297 168.989 297H168.389ZM173.983 297C173.855 297 173.762 296.973 173.703 296.92C173.65 296.861 173.623 296.773 173.623 296.656V291.912C173.623 291.795 173.65 291.707 173.703 291.648C173.762 291.589 173.855 291.56 173.983 291.56H177.303C177.431 291.56 177.519 291.587 177.567 291.64C177.615 291.688 177.639 291.773 177.639 291.896V292.192C177.639 292.315 177.615 292.403 177.567 292.456C177.519 292.509 177.431 292.536 177.303 292.536H174.943V293.8H176.591C176.719 293.8 176.807 293.827 176.855 293.88C176.903 293.928 176.927 294.013 176.927 294.136V294.416C176.927 294.539 176.903 294.627 176.855 294.68C176.807 294.733 176.719 294.76 176.591 294.76H174.943V296.032H177.295C177.423 296.032 177.511 296.059 177.559 296.112C177.607 296.165 177.631 296.253 177.631 296.376V296.664C177.631 296.787 177.607 296.875 177.559 296.928C177.511 296.976 177.423 297 177.295 297H173.983ZM183.731 297.12C182.825 297.12 182.131 296.872 181.651 296.376C181.177 295.88 180.939 295.181 180.939 294.28C180.939 293.379 181.177 292.68 181.651 292.184C182.131 291.688 182.825 291.44 183.731 291.44C184.633 291.44 185.321 291.688 185.795 292.184C186.275 292.68 186.515 293.379 186.515 294.28C186.515 295.181 186.275 295.88 185.795 296.376C185.321 296.872 184.633 297.12 183.731 297.12ZM183.731 296.168C184.217 296.168 184.582 296.011 184.827 295.696C185.078 295.376 185.203 294.904 185.203 294.28C185.203 293.656 185.078 293.187 184.827 292.872C184.582 292.552 184.217 292.392 183.731 292.392C183.241 292.392 182.87 292.552 182.619 292.872C182.374 293.187 182.251 293.656 182.251 294.28C182.251 294.904 182.374 295.376 182.619 295.696C182.87 296.011 183.241 296.168 183.731 296.168ZM189.626 297.12C189.135 297.12 188.7 297.037 188.322 296.872C187.943 296.707 187.65 296.469 187.442 296.16C187.234 295.845 187.13 295.477 187.13 295.056V291.912C187.13 291.795 187.156 291.707 187.21 291.648C187.268 291.589 187.362 291.56 187.49 291.56H188.09C188.223 291.56 188.316 291.589 188.37 291.648C188.423 291.701 188.45 291.789 188.45 291.912V295.08C188.45 295.427 188.554 295.696 188.762 295.888C188.97 296.075 189.258 296.168 189.626 296.168C189.994 296.168 190.279 296.075 190.482 295.888C190.69 295.696 190.794 295.427 190.794 295.08V291.912C190.794 291.795 190.82 291.707 190.874 291.648C190.932 291.589 191.026 291.56 191.154 291.56H191.754C191.887 291.56 191.98 291.589 192.034 291.648C192.092 291.707 192.122 291.795 192.122 291.912V295.056C192.122 295.477 192.015 295.845 191.802 296.16C191.594 296.469 191.3 296.707 190.922 296.872C190.548 297.037 190.116 297.12 189.626 297.12ZM194.592 297C194.459 297 194.363 296.973 194.304 296.92C194.251 296.861 194.224 296.773 194.224 296.656V292.536H192.912C192.784 292.536 192.696 292.512 192.648 292.464C192.6 292.411 192.576 292.323 192.576 292.2V291.904C192.576 291.781 192.6 291.693 192.648 291.64C192.696 291.587 192.784 291.56 192.912 291.56H196.864C196.992 291.56 197.08 291.587 197.128 291.64C197.182 291.693 197.208 291.781 197.208 291.904V292.2C197.208 292.317 197.182 292.403 197.128 292.456C197.08 292.509 196.992 292.536 196.864 292.536H195.552V296.656C195.552 296.773 195.523 296.861 195.464 296.92C195.411 296.973 195.318 297 195.184 297H194.592Z" fill="black"/>
</g>
<defs>
<clipPath id="clip0">
<rect width="210" height="380" fill="white"/>
</clipPath>
</defs>
</svg>
